<?xml version="1.0" standalone="no"?>
<!DOCTYPE svg PUBLIC "-//W3C//DTD SVG 20010904//EN"
 "http://www.w3.org/TR/2001/REC-SVG-20010904/DTD/svg10.dtd">
<svg version="1.0" xmlns="http://www.w3.org/2000/svg"
 width="3500.000000pt" height="3319.000000pt" viewBox="0 0 3500.000000 3319.000000"
 preserveAspectRatio="xMidYMid meet">

<g transform="translate(0.000000,3319.000000) scale(0.100000,-0.100000)"
fill="#000000" stroke="none">
<path d="M22831 28900 c-1022 -49 -2035 -233 -2758 -501 -377 -140 -623 -311
-717 -500 -59 -118 -49 -215 30 -291 74 -70 203 -112 386 -124 51 -3 239 2
418 11 439 23 1287 31 1589 16 1161 -59 2080 -280 2833 -683 135 -72 295 -169
403 -244 186 -130 295 -284 348 -492 31 -125 31 -389 -2 -542 -68 -320 -223
-697 -431 -1047 -48 -80 -60 -93 -93 -103 -49 -15 -115 -74 -138 -125 -11 -23
-19 -64 -19 -95 l0 -55 -78 0 c-70 0 -84 -3 -128 -30 -30 -19 -60 -49 -78 -79
-26 -41 -30 -59 -31 -117 0 -58 -3 -68 -15 -63 -122 52 -255 7 -312 -105 -44
-86 -36 -185 21 -257 l20 -25 -402 -371 c-221 -204 -427 -394 -457 -422 -30
-29 -458 -423 -950 -876 -492 -453 -920 -847 -950 -875 -64 -60 -296 -274
-460 -425 -63 -58 -148 -136 -189 -175 -42 -38 -100 -93 -131 -121 -84 -78
-936 -862 -1285 -1184 -330 -304 -473 -436 -1092 -1008 -216 -199 -395 -362
-398 -362 -3 0 -83 69 -178 152 -1026 906 -1915 1692 -2161 1908 -166 146
-461 407 -656 579 -195 173 -524 463 -730 645 -206 182 -586 518 -845 746
-258 229 -513 453 -565 499 -52 46 -375 331 -717 634 -343 302 -623 553 -623
559 0 5 8 22 18 36 61 87 54 201 -16 282 -73 86 -173 107 -288 63 -11 -4 -14
6 -14 48 0 61 -32 140 -71 176 -13 12 -46 32 -73 44 -41 18 -62 21 -115 16
l-66 -5 -1 56 c-1 93 -60 179 -145 211 -18 7 -40 16 -48 20 -25 12 -180 280
-276 476 -149 303 -234 559 -266 803 -18 138 -7 325 25 435 77 262 210 399
621 646 650 389 1449 638 2425 756 536 64 1034 79 2180 65 333 -4 384 -2 455
14 162 35 275 110 305 201 61 185 -164 440 -530 601 -510 224 -1416 418 -2310
494 -594 50 -1298 48 -1875 -5 -1945 -181 -3651 -920 -5055 -2192 -522 -473
-1057 -1119 -1352 -1633 l-55 -95 15 -45 c18 -59 11 -193 -18 -319 -95 -425
-365 -957 -689 -1361 -354 -440 -760 -740 -1220 -901 l-93 -32 -148 -161
c-172 -187 -302 -340 -404 -475 -207 -274 -336 -515 -336 -627 0 -109 245
-425 621 -803 729 -732 1416 -1157 1765 -1092 144 26 273 109 459 296 144 144
266 296 414 515 186 277 195 295 242 480 73 294 155 517 281 770 348 698 913
1189 1632 1419 492 157 1064 180 1496 60 137 -39 193 -66 234 -114 62 -75 158
-109 239 -87 l37 10 0 -56 c1 -96 56 -181 142 -216 47 -20 138 -21 182 -2 l34
14 0 -56 c0 -94 38 -161 116 -207 59 -35 123 -42 187 -21 49 17 52 16 73 -2
11 -10 194 -171 406 -358 882 -778 1172 -1034 1290 -1139 128 -114 1937 -1711
3630 -3204 520 -459 951 -839 958 -845 12 -12 5 -19 -379 -373 l-45 -42 -70
19 c-460 129 -1005 43 -1414 -222 -114 -73 -168 -118 -435 -358 -726 -652
-989 -888 -1335 -1199 -212 -190 -493 -442 -625 -561 -132 -118 -351 -316
-487 -438 -137 -122 -357 -320 -490 -440 -134 -120 -396 -355 -582 -522 -343
-308 -1090 -978 -2506 -2250 -426 -382 -864 -776 -975 -875 -980 -879 -1572
-1415 -1636 -1481 -250 -261 -409 -593 -465 -974 -22 -157 -15 -420 16 -575
48 -240 161 -504 297 -694 292 -406 739 -671 1236 -732 127 -15 414 -7 527 16
315 62 601 197 825 390 67 58 435 387 1935 1735 1193 1070 2000 1796 3675
3299 897 805 1781 1599 1965 1765 991 890 1311 1182 1365 1246 286 340 428
737 424 1189 0 84 3 156 8 160 4 4 153 142 331 305 l323 298 42 -35 c23 -20
166 -145 317 -279 l275 -244 6 -189 c6 -212 26 -335 85 -514 83 -254 236 -505
418 -686 45 -44 365 -324 711 -622 671 -576 2755 -2368 4680 -4023 644 -553
1701 -1462 2350 -2020 649 -558 1216 -1045 1260 -1083 220 -190 467 -317 747
-386 175 -43 292 -55 482 -48 500 17 925 217 1274 602 132 145 280 400 347
600 218 643 42 1369 -447 1841 -35 34 -288 255 -563 491 -275 236 -1240 1065
-2145 1843 -905 778 -1901 1635 -2215 1904 -313 270 -779 670 -1035 890 -727
626 -1051 904 -1670 1436 -1537 1321 -1438 1238 -1555 1313 -90 57 -216 121
-327 163 -344 133 -757 149 -1121 45 l-69 -20 -199 176 c-109 97 -199 177
-199 178 0 2 222 207 492 456 271 250 668 616 883 814 1276 1177 1999 1843
2700 2490 435 400 840 774 900 830 61 56 349 323 642 592 l532 491 38 -14
c155 -55 313 61 313 230 0 51 2 57 18 51 81 -33 157 -28 226 15 70 45 100 98
104 187 4 68 6 73 24 67 36 -11 114 -5 157 12 25 10 61 38 89 70 36 41 64 60
113 80 240 98 520 140 877 131 440 -11 805 -99 1187 -287 169 -83 347 -195
480 -300 101 -81 297 -271 385 -375 301 -356 528 -814 669 -1352 28 -106 34
-120 133 -270 178 -269 339 -472 515 -646 174 -172 338 -275 472 -296 339 -54
951 325 1636 1014 333 335 584 639 686 832 42 78 37 136 -20 259 -116 247
-318 509 -714 927 -140 148 -153 158 -206 173 -31 9 -107 36 -169 60 -477 184
-929 556 -1290 1061 -364 511 -626 1181 -561 1437 10 42 9 45 -46 137 -353
581 -957 1256 -1590 1774 -692 568 -1492 1031 -2335 1352 -823 313 -1638 489
-2590 558 -253 18 -910 27 -1159 15z m-576 -964 c22 -3 105 -10 185 -16 749
-56 1484 -212 2004 -427 376 -154 653 -332 896 -573 352 -349 551 -744 599
-1192 55 -504 -116 -1082 -458 -1549 -12 -17 -8 -25 35 -76 121 -142 497 -511
740 -726 l41 -37 144 74 c620 320 1242 377 2022 185 169 -42 603 -182 692
-224 29 -14 55 -25 59 -25 3 0 199 172 434 382 l427 382 -1 41 c-1 22 -5 105
-9 185 -12 229 25 421 121 615 41 82 140 232 149 223 2 -1 -14 -40 -36 -84
-240 -502 -140 -1090 295 -1742 225 -339 553 -715 994 -1143 l171 -166 128 2
c101 2 143 7 198 24 166 54 281 140 336 253 l31 63 -6 -49 c-23 -189 -260
-382 -510 -414 l-58 -7 -37 -110 c-139 -407 -406 -679 -681 -691 l-75 -3 -54
-88 c-122 -202 -265 -363 -387 -436 -90 -54 -203 -79 -259 -58 -15 6 -9 10 30
15 173 26 327 198 515 575 l79 158 56 -10 c123 -23 239 26 366 152 132 131
232 298 307 512 l31 87 -72 47 c-40 27 -121 85 -182 130 -660 490 -1162 1101
-1346 1635 -17 52 -35 99 -39 103 -4 5 -116 -87 -247 -205 -132 -117 -303
-269 -381 -338 -77 -69 -141 -128 -141 -131 -1 -3 43 -39 97 -80 119 -90 497
-465 653 -649 284 -333 536 -671 731 -980 76 -120 130 -214 115 -200 -3 3 -40
57 -83 120 -277 410 -606 810 -964 1174 -322 326 -535 503 -728 603 -150 78
-550 202 -851 262 -738 149 -1373 55 -1939 -288 -57 -34 -107 -61 -112 -59
-16 6 -249 214 -433 387 -197 184 -439 434 -507 525 -63 83 -62 98 9 194 239
322 387 693 432 1082 16 143 7 385 -20 523 -102 514 -475 1001 -1004 1312
-249 145 -581 277 -980 390 -896 252 -2235 362 -3327 274 -262 -21 -621 -76
-754 -115 -71 -20 -81 -16 -16 7 235 85 733 160 1320 198 137 9 1182 6 1255
-3z m-7685 -45 c444 -34 811 -89 1013 -152 68 -21 91 -37 26 -19 -120 35 -410
78 -684 102 -203 17 -1127 18 -1370 0 -1224 -88 -2154 -298 -2820 -637 -263
-133 -424 -246 -609 -424 -365 -354 -562 -745 -595 -1180 -35 -477 126 -994
441 -1409 54 -71 78 -111 78 -130 0 -30 -35 -91 -94 -162 -143 -172 -589 -619
-832 -834 l-42 -36 -77 45 c-261 155 -550 261 -856 315 -172 31 -526 39 -725
16 -288 -32 -647 -120 -991 -242 -86 -30 -184 -69 -217 -86 -391 -197 -1112
-971 -1626 -1744 -141 -212 -153 -229 -125 -174 74 144 301 495 485 748 313
430 728 893 973 1086 48 38 87 70 87 71 0 4 -772 660 -780 663 -5 2 -19 -30
-31 -70 -77 -256 -262 -592 -474 -863 -269 -344 -633 -689 -1012 -960 -46 -32
-83 -62 -83 -66 0 -4 13 -44 29 -87 118 -318 338 -581 535 -637 57 -17 145
-16 189 1 12 4 25 -12 53 -68 211 -420 395 -627 571 -645 83 -9 38 -27 -51
-21 -83 5 -155 35 -238 96 -89 65 -218 211 -308 348 l-85 129 -80 1 c-272 4
-553 284 -695 692 -29 82 -35 92 -57 92 -51 0 -172 34 -251 71 -168 78 -269
188 -300 327 -12 51 2 56 18 6 7 -19 39 -65 73 -100 46 -50 79 -74 141 -104
125 -60 289 -91 380 -70 34 7 52 7 61 0 20 -16 505 492 751 785 444 531 680
962 775 1415 29 136 32 410 6 535 -26 124 -66 240 -119 343 -53 105 -39 102
38 -5 100 -140 168 -311 199 -502 14 -83 16 -136 11 -260 -3 -86 -7 -165 -9
-177 -1 -17 89 -99 424 -385 234 -200 433 -370 442 -378 15 -12 24 -11 70 12
128 64 532 203 762 262 295 75 541 107 820 107 418 0 773 -85 1162 -280 l121
-61 240 234 c223 219 455 463 536 565 l34 43 -48 63 c-157 205 -312 522 -385
789 -60 220 -70 296 -70 550 0 201 3 244 23 344 115 566 476 1059 1022 1396
645 397 1759 670 2941 721 85 4 156 9 159 11 10 9 906 -5 1050 -16z m9987
-4987 l92 -101 -871 -804 c-480 -442 -1196 -1103 -1593 -1468 -396 -366 -1118
-1032 -1605 -1480 -486 -449 -977 -901 -1090 -1005 -113 -104 -234 -217 -270
-250 -441 -409 -795 -731 -806 -731 -14 0 -354 293 -354 305 0 4 44 48 98 97
120 111 1914 1765 3202 2953 212 195 700 645 1085 1000 384 355 965 890 1289
1189 l590 544 70 -74 c39 -41 112 -120 163 -175z m-13197 -135 c139 -123 295
-260 345 -304 788 -696 2651 -2341 3553 -3137 2001 -1768 2416 -2134 3207
-2832 424 -373 776 -684 782 -690 10 -9 -8 -26 -78 -75 -49 -36 -132 -104
-184 -153 -51 -48 -95 -88 -98 -88 -5 0 -223 191 -1182 1039 -109 97 -474 419
-810 715 -335 296 -893 789 -1240 1095 -346 306 -670 592 -720 636 -89 78
-745 657 -1960 1731 -335 296 -977 862 -1425 1258 -448 395 -816 722 -818 726
-3 7 10 22 207 244 l104 117 31 -29 c17 -16 146 -130 286 -253z m5430 -6890
c94 -84 169 -156 168 -161 -2 -6 -73 -74 -158 -153 l-154 -143 -82 76 c-46 41
-120 102 -166 134 -46 32 -94 67 -106 76 l-24 17 164 152 c89 83 168 152 175
152 6 1 89 -67 183 -150z m4309 -459 c79 -42 79 -181 -1 -230 -117 -71 -258
51 -199 172 38 80 117 103 200 58z m-6546 -89 c9 -1 34 -16 53 -34 66 -60 56
-171 -19 -217 -93 -57 -207 8 -207 119 0 42 5 56 31 86 30 33 77 55 109 49 8
-1 23 -3 33 -3z m6204 -301 c90 -54 91 -166 1 -233 -32 -24 -109 -25 -144 -2
-58 38 -81 124 -49 186 34 64 128 89 192 49z m814 -15 c43 -23 69 -71 69 -127
0 -87 -84 -151 -167 -129 -115 31 -141 190 -40 251 39 24 97 26 138 5z m-6652
-83 c52 -26 75 -63 75 -120 0 -144 -178 -192 -255 -69 -29 47 -22 118 17 159
49 51 103 61 163 30z m-782 -65 c37 -42 48 -73 39 -121 -9 -48 -39 -82 -91
-102 -43 -16 -47 -16 -90 0 -67 26 -107 96 -91 160 8 31 53 85 80 97 12 5 43
7 70 5 42 -3 55 -9 83 -39z m6299 -238 c56 -52 69 -119 34 -176 -38 -64 -111
-88 -174 -58 -103 49 -111 179 -16 243 46 31 118 27 156 -9z m793 -7 c124 -63
93 -241 -45 -258 -26 -3 -50 1 -73 13 -99 52 -105 178 -12 240 41 27 84 29
130 5z m815 -16 c68 -29 103 -121 69 -185 -53 -101 -184 -106 -243 -9 -40 67
-13 154 60 190 42 22 70 22 114 4z m-6771 -63 c117 -59 66 -253 -67 -253 -105
0 -170 98 -128 193 35 78 112 102 195 60z m-840 -27 c54 -23 80 -59 84 -118 5
-64 -18 -107 -70 -131 -97 -47 -197 15 -199 123 -1 51 28 96 77 120 47 24 65
25 108 6z m-803 -45 c44 -23 73 -71 73 -121 0 -73 -66 -140 -136 -140 -111 0
-180 138 -110 221 49 58 113 73 173 40z m6448 -220 c97 -50 99 -191 2 -242
-95 -51 -200 14 -200 124 0 52 33 101 85 123 42 18 70 17 113 -5z m805 -15
c18 -7 45 -28 60 -45 53 -63 27 -175 -48 -207 -101 -42 -195 19 -195 126 0 55
25 96 75 120 47 24 65 25 108 6z m845 -32 c59 -38 79 -129 42 -189 -71 -115
-253 -65 -253 69 0 111 120 179 211 120z m799 -14 c74 -33 102 -111 67 -186
-42 -89 -169 -99 -233 -18 -68 86 -2 216 114 223 6 0 29 -8 52 -19z m-6916
-25 c41 -22 69 -71 69 -123 0 -58 -25 -98 -78 -123 -58 -29 -104 -19 -154 31
-34 33 -38 43 -38 86 0 30 7 61 19 80 35 57 121 80 182 49z m-821 -40 c69 -36
95 -109 61 -177 -25 -53 -70 -81 -127 -81 -134 0 -183 178 -69 253 36 24 95
26 135 5z m-808 -42 c34 -20 68 -79 68 -119 0 -73 -64 -134 -141 -134 -141 0
-189 179 -69 254 33 21 105 20 142 -1z m-835 -33 c138 -62 92 -260 -60 -260
-86 0 -153 88 -128 170 13 46 53 87 95 99 44 13 46 13 93 -9z m6607 -199 c56
-31 81 -113 52 -169 -30 -57 -63 -77 -128 -77 -56 0 -62 2 -93 37 -39 42 -50
74 -41 121 9 45 44 85 91 102 44 15 74 11 119 -14z m821 -21 c32 -20 65 -80
65 -117 0 -32 -40 -99 -69 -116 -66 -39 -163 -10 -195 57 -20 43 -20 79 1 123
33 70 129 95 198 53z m829 -30 c70 -61 70 -148 1 -209 -86 -75 -225 -12 -225
102 0 81 58 137 142 137 38 0 54 -6 82 -30z m794 -4 c39 -20 63 -50 72 -91 11
-51 -5 -98 -46 -134 -29 -26 -43 -31 -88 -31 -82 0 -136 54 -136 135 0 101
109 167 198 121z m-6234 -25 c34 -19 66 -74 66 -114 0 -62 -56 -126 -118 -134
-56 -8 -84 1 -121 39 -36 37 -48 86 -32 137 13 45 37 68 88 86 42 15 73 11
117 -14z m7057 4 c43 -23 69 -71 69 -127 0 -39 -6 -54 -31 -82 -58 -67 -149
-67 -208 -1 -54 61 -38 163 32 205 39 24 97 26 138 5z m-7874 -40 c90 -59 80
-189 -19 -241 -90 -47 -208 38 -193 139 8 53 32 87 80 109 45 21 93 18 132 -7z
m-838 -30 c16 -8 40 -28 55 -45 49 -59 26 -164 -45 -202 -91 -49 -202 18 -202
122 0 100 107 169 192 125z m-812 -42 c101 -48 97 -201 -6 -248 -56 -25 -105
-14 -153 35 -34 33 -38 43 -38 86 0 111 99 174 197 127z m-810 -43 c66 -40 86
-107 52 -176 -17 -36 -32 -51 -66 -66 -122 -54 -238 73 -175 191 35 66 125 90
189 51z m6724 -155 c43 -23 69 -71 69 -129 0 -43 -4 -53 -39 -87 -36 -36 -43
-39 -96 -39 -53 0 -60 3 -96 39 -35 34 -39 44 -39 87 0 61 16 92 59 121 40 27
98 30 142 8z m820 -20 c64 -34 89 -128 49 -192 -55 -90 -166 -91 -233 -1 -24
32 -25 109 -2 145 38 57 124 80 186 48z m824 -25 c62 -38 83 -126 45 -187 -39
-65 -105 -85 -175 -54 -77 34 -105 129 -59 198 39 60 129 80 189 43z m831 -31
c53 -49 66 -101 40 -163 -20 -49 -70 -80 -126 -80 -142 0 -189 179 -67 255 43
27 117 21 153 -12z m-5590 5 c110 -53 92 -220 -28 -256 -81 -24 -171 44 -171
131 0 106 103 171 199 125z m6395 -17 c46 -30 71 -81 65 -131 -17 -138 -195
-169 -258 -45 -23 45 -23 86 2 127 43 70 128 92 191 49z m809 -12 c63 -33 91
-107 64 -174 -42 -106 -177 -119 -241 -22 -75 111 57 258 177 196z m-8019 -10
c43 -23 69 -71 69 -127 0 -86 -85 -151 -170 -128 -113 30 -136 190 -37 250 39
24 97 26 138 5z m-791 -60 c64 -61 61 -145 -5 -204 -86 -75 -225 -12 -225 102
0 86 60 141 148 134 41 -3 59 -10 82 -32z m-825 -29 c27 -18 55 -74 55 -111 0
-41 -39 -102 -76 -120 -72 -34 -151 -10 -185 57 -68 132 80 257 206 174z
m-827 -32 c72 -47 81 -149 19 -211 -68 -69 -174 -51 -220 37 -62 120 86 248
201 174z m-845 -28 c52 -22 79 -59 85 -115 3 -39 0 -57 -17 -84 -55 -89 -190
-86 -237 5 -36 69 -11 154 56 189 41 23 69 24 113 5z m7704 -156 c46 -28 67
-65 67 -119 0 -143 -178 -190 -255 -68 -40 64 -6 167 66 197 35 15 89 11 122
-10z m831 -29 c17 -12 38 -41 48 -66 16 -43 16 -47 0 -90 -40 -104 -157 -125
-234 -42 -25 26 -39 89 -28 130 6 27 51 75 81 88 32 14 100 4 133 -20z m798
-7 c98 -47 99 -201 1 -247 -46 -22 -79 -21 -125 2 -47 24 -72 67 -72 121 0
105 102 169 196 124z m807 -18 c52 -22 79 -59 85 -115 3 -39 0 -57 -17 -84
-54 -88 -190 -86 -236 4 -38 72 -10 158 60 190 48 22 66 23 108 5z m-6493 -36
c81 -58 74 -177 -13 -230 -92 -56 -215 22 -204 129 12 109 129 164 217 101z
m7337 5 c85 -56 81 -189 -8 -237 -119 -64 -245 53 -190 177 34 76 129 105 198
60z m800 -15 c50 -22 83 -70 83 -120 0 -109 -122 -177 -211 -117 -94 62 -85
192 16 238 50 23 60 23 112 -1z m-8961 -25 c89 -58 81 -188 -16 -238 -93 -48
-209 33 -196 137 12 102 127 157 212 101z m-830 -31 c52 -25 78 -74 71 -137
-4 -42 -10 -56 -40 -83 -74 -68 -173 -49 -217 40 -57 118 66 237 186 180z
m-815 -39 c43 -23 69 -71 69 -127 0 -38 -6 -54 -30 -82 -61 -70 -148 -70 -209
-1 -54 61 -38 163 32 205 39 24 97 26 138 5z m-791 -60 c118 -113 -17 -294
-163 -218 -86 44 -89 181 -4 234 48 30 127 22 167 -16z m-840 -20 c33 -17 70
-81 70 -120 0 -36 -23 -78 -60 -109 -82 -68 -220 0 -220 109 0 41 30 95 64
116 38 23 106 25 146 4z m8647 -140 c34 -23 63 -74 63 -113 0 -89 -89 -160
-174 -138 -65 16 -114 94 -102 162 8 39 63 100 98 107 36 8 88 -1 115 -18z
m793 -11 c106 -43 117 -177 20 -242 -28 -19 -44 -23 -84 -19 -41 4 -55 11 -83
40 -38 42 -48 73 -39 122 8 40 63 101 98 108 41 8 47 7 88 -9z m828 -24 c34
-15 47 -29 63 -66 26 -59 19 -103 -25 -151 -63 -69 -180 -52 -220 31 -27 58
-15 129 28 165 16 13 83 40 101 40 6 0 29 -8 53 -19z m847 -41 c92 -82 49
-225 -73 -237 -86 -8 -152 49 -152 131 0 81 58 137 142 137 39 0 54 -6 83 -31z
m832 -32 c29 -33 33 -43 33 -93 0 -52 -3 -59 -39 -95 -34 -34 -44 -39 -85 -39
-86 0 -146 55 -146 133 0 87 60 141 149 134 47 -3 59 -9 88 -40z m-8330 13
c46 -28 66 -72 60 -134 -4 -41 -10 -55 -41 -83 -31 -29 -43 -33 -90 -33 -39 0
-60 6 -80 21 -105 83 -53 249 79 249 22 0 54 -9 72 -20z m9120 -10 c46 -28 66
-72 60 -133 -11 -118 -152 -162 -234 -73 -80 86 -16 226 102 226 22 0 54 -9
72 -20z m-9938 -29 c64 -45 85 -128 47 -186 -56 -85 -185 -86 -236 -2 -75 123
74 271 189 188z m-808 -42 c112 -80 44 -258 -94 -246 -121 10 -170 158 -79
240 44 40 122 43 173 6z m-825 -34 c61 -40 81 -122 44 -183 -59 -97 -191 -93
-243 8 -62 120 85 250 199 175z m-813 -41 c85 -61 71 -190 -25 -240 -64 -33
-148 1 -180 72 -22 50 -19 81 13 132 36 61 134 79 192 36z m-832 -29 c43 -23
69 -71 69 -127 0 -38 -6 -54 -30 -82 -61 -70 -148 -70 -209 -1 -54 61 -38 163
32 205 39 24 97 26 138 5z m9600 -130 c92 -48 90 -193 -2 -241 -23 -11 -47
-15 -83 -11 -41 4 -55 10 -83 41 -29 31 -33 43 -33 89 0 32 6 61 16 76 40 56
124 77 185 46z m820 -20 c40 -21 69 -71 69 -120 0 -80 -59 -135 -144 -135 -84
0 -149 88 -126 170 11 37 44 78 75 90 33 14 94 11 126 -5z m824 -25 c58 -36
81 -119 50 -180 -35 -68 -122 -93 -193 -56 -43 22 -77 93 -68 142 8 38 49 92
80 104 38 15 98 11 131 -10z m831 -31 c57 -53 68 -125 29 -185 -24 -37 -96
-67 -141 -58 -46 8 -101 63 -110 108 -11 60 31 137 86 159 34 14 110 0 136
-24z m805 -12 c96 -64 85 -194 -20 -241 -53 -25 -104 -15 -147 28 -55 55 -57
127 -7 186 46 55 116 66 174 27z m-9263 -17 c115 -70 83 -235 -51 -257 -43 -7
-100 19 -128 59 -84 117 56 273 179 198z m10066 6 c67 -28 98 -106 70 -175
-43 -107 -176 -119 -242 -21 -19 28 -23 44 -19 83 4 50 23 78 72 108 36 22 74
24 119 5z m-10880 -45 c65 -43 85 -125 46 -188 -40 -65 -107 -86 -175 -53 -77
37 -104 127 -58 198 36 58 131 80 187 43z m-823 -36 c85 -44 92 -172 13 -234
-20 -16 -41 -21 -82 -21 -50 0 -58 3 -93 39 -34 34 -39 44 -39 85 0 26 7 60
15 77 32 62 121 87 186 54z m-790 -61 c85 -82 38 -220 -79 -232 -60 -5 -105
15 -132 61 -23 38 -26 97 -6 136 42 80 151 98 217 35z m-853 -14 c34 -15 47
-29 63 -66 26 -59 19 -103 -24 -151 -62 -67 -176 -53 -217 28 -11 21 -20 50
-20 64 0 74 63 139 140 144 8 0 34 -8 58 -19z m-802 -45 c61 -40 81 -122 44
-183 -59 -97 -191 -93 -243 8 -62 120 85 250 199 175z m10551 -115 c65 -39 85
-105 54 -175 -16 -37 -29 -50 -67 -66 -73 -33 -143 -8 -179 61 -62 119 78 250
192 180z m813 -19 c99 -52 96 -194 -4 -243 -56 -27 -105 -19 -153 26 -68 62
-53 179 30 220 43 21 85 20 127 -3z m818 -20 c97 -50 96 -198 -2 -245 -43 -20
-79 -20 -123 1 -97 46 -97 199 0 247 43 21 80 20 125 -3z m805 -15 c52 -22 79
-59 85 -115 3 -39 0 -57 -17 -84 -40 -65 -132 -85 -197 -42 -34 22 -67 97 -59
133 9 45 40 87 76 105 42 20 70 21 112 3z m843 -31 c80 -52 84 -173 7 -229
-39 -28 -111 -32 -150 -7 -67 42 -87 111 -51 180 40 77 125 101 194 56z m812
-17 c65 -33 89 -120 52 -187 -66 -116 -235 -82 -257 52 -9 60 40 133 102 150
26 7 71 0 103 -15z m-11048 -4 c105 -42 112 -196 10 -249 -89 -46 -200 21
-200 122 0 50 33 102 80 125 43 22 59 22 110 2z m-795 -48 c84 -55 82 -176 -4
-233 -63 -43 -148 -21 -191 49 -73 120 77 261 195 184z m-827 -36 c70 -43 92
-128 49 -191 -57 -86 -178 -88 -233 -4 -77 118 64 268 184 195z m-822 -36 c89
-42 99 -169 18 -233 -67 -53 -170 -25 -206 56 -53 120 67 234 188 177z m-809
-44 c46 -28 66 -72 60 -134 -4 -41 -10 -55 -41 -83 -32 -29 -42 -33 -92 -33
-52 0 -59 3 -95 39 -34 34 -39 44 -39 85 0 87 55 146 135 146 22 0 54 -9 72
-20z m-796 -56 c59 -56 57 -145 -5 -201 -85 -78 -226 -15 -226 100 0 67 31
109 96 132 48 16 98 5 135 -31z m11498 -91 c33 -24 61 -79 61 -118 0 -66 -72
-135 -141 -135 -75 0 -145 78 -136 152 13 104 134 161 216 101z m822 -24 c113
-80 44 -258 -95 -246 -41 4 -55 10 -83 40 -38 42 -48 73 -38 124 7 41 60 99
97 106 37 8 90 -3 119 -24z m797 -9 c77 -35 103 -138 51 -204 -64 -81 -191
-71 -233 18 -38 80 0 172 80 196 43 13 55 11 102 -10z m854 -47 c90 -86 28
-233 -97 -233 -75 0 -135 59 -135 133 0 70 40 121 106 135 50 11 90 0 126 -35z
m828 -30 c37 -42 41 -109 10 -160 -69 -114 -250 -63 -250 70 0 130 154 188
240 90z m781 12 c40 -21 69 -71 69 -120 0 -80 -59 -135 -144 -135 -83 0 -145
81 -126 165 9 39 42 82 75 95 33 14 94 11 126 -5z m-11990 -20 c92 -48 90
-193 -3 -241 -134 -69 -267 92 -170 208 14 16 35 34 46 38 34 14 95 11 127 -5z
m-801 -53 c74 -55 64 -184 -19 -227 -66 -34 -154 -8 -187 56 -11 22 -15 47
-11 82 10 108 127 155 217 89z m-845 -22 c102 -49 105 -193 5 -245 -88 -46
-200 21 -200 119 0 63 40 119 96 136 44 13 54 12 99 -10z m-797 -49 c83 -59
77 -178 -11 -231 -119 -73 -261 76 -184 191 45 68 131 86 195 40z m-830 -31
c70 -43 92 -128 49 -191 -30 -46 -81 -71 -131 -65 -138 17 -169 195 -45 258
45 23 86 23 127 -2z m-822 -36 c68 -33 95 -125 54 -191 -39 -65 -105 -85 -175
-54 -37 16 -50 29 -66 66 -54 122 65 237 187 179z m12483 -104 c33 -17 61 -70
61 -115 0 -132 -166 -184 -249 -79 -15 20 -21 41 -21 80 0 47 4 59 33 90 47
52 109 61 176 24z m818 -20 c86 -52 82 -189 -6 -235 -17 -8 -50 -15 -75 -15
-36 0 -52 6 -81 31 -68 60 -68 148 1 209 28 24 44 30 82 30 29 0 59 -8 79 -20z
m818 -20 c87 -54 83 -190 -7 -236 -101 -52 -224 34 -203 143 7 37 48 91 79
103 38 15 98 11 131 -10z m842 -43 c18 -20 35 -48 39 -62 24 -97 -74 -191
-173 -163 -68 19 -116 96 -99 162 8 31 53 85 80 97 12 5 43 7 70 5 42 -3 55
-9 83 -39z m783 8 c69 -36 94 -106 61 -179 -58 -133 -261 -91 -261 54 0 103
110 172 200 125z m814 -19 c38 -16 71 -57 80 -102 9 -41 -18 -108 -54 -134
-119 -85 -271 50 -202 179 33 62 107 86 176 57z m-12933 -39 c94 -63 85 -193
-17 -242 -63 -30 -136 -6 -174 58 -73 119 76 261 191 184z m-805 -48 c53 -49
66 -101 40 -163 -44 -106 -200 -107 -250 -2 -31 66 -10 135 56 177 44 27 118
22 154 -12z m-836 -24 c61 -31 88 -122 55 -185 -35 -68 -127 -93 -194 -54 -43
25 -74 91 -65 139 7 40 46 92 78 105 33 14 95 11 126 -5z m-813 -45 c115 -70
63 -250 -72 -250 -82 0 -135 54 -135 138 0 50 3 58 39 93 34 35 44 39 87 39
31 0 61 -7 81 -20z m-816 -38 c58 -33 82 -131 45 -187 -39 -59 -124 -82 -187
-50 -81 42 -92 164 -21 228 42 38 108 42 163 9z m-812 -41 c43 -31 67 -100 52
-151 -12 -42 -57 -86 -97 -96 -118 -30 -219 107 -152 206 47 70 132 87 197 41z
m13418 -81 c65 -39 85 -105 54 -175 -35 -80 -138 -107 -205 -54 -106 83 -50
248 84 249 19 0 49 -9 67 -20z m820 -20 c100 -60 79 -213 -34 -251 -113 -37
-218 101 -154 204 39 64 126 85 188 47z m809 -16 c74 -35 99 -143 48 -204 -51
-59 -107 -74 -171 -43 -97 46 -98 198 -2 246 43 21 82 21 125 1z m812 -18 c57
-30 77 -63 77 -126 0 -51 -4 -63 -30 -90 -81 -85 -202 -54 -236 61 -10 33 -9
43 12 85 37 74 113 103 177 70z m838 -31 c44 -29 66 -74 61 -129 -4 -41 -10
-55 -40 -83 -42 -38 -73 -48 -122 -39 -72 14 -124 90 -110 159 22 98 130 145
211 92z m823 -22 c33 -24 61 -79 61 -118 0 -66 -72 -135 -141 -135 -75 0 -145
78 -136 152 13 104 134 161 216 101z m-13948 -23 c112 -31 135 -190 36 -250
-64 -40 -158 -15 -192 49 -25 49 -20 114 12 152 25 29 73 58 98 59 6 0 26 -5
46 -10z m-795 -46 c67 -32 95 -124 60 -192 -32 -63 -113 -88 -179 -57 -106 50
-101 202 8 251 40 18 70 17 111 -2z m-797 -51 c64 -47 76 -133 27 -198 -101
-132 -313 10 -226 153 43 71 135 92 199 45z m-831 -33 c39 -24 72 -75 72 -113
0 -150 -201 -196 -265 -61 -56 118 82 242 193 174z m-813 -40 c94 -58 83 -196
-20 -241 -156 -69 -268 153 -122 241 41 26 101 25 142 0z m-824 -35 c40 -21
69 -71 69 -120 0 -80 -59 -135 -145 -135 -110 0 -170 145 -93 227 12 14 32 29
43 33 33 14 94 11 126 -5z m14394 -79 c85 -55 82 -176 -5 -234 -90 -61 -220
23 -206 132 12 101 127 157 211 102z m823 -25 c83 -59 77 -178 -11 -231 -119
-73 -261 76 -184 191 45 68 131 86 195 40z m800 -11 c34 -15 47 -29 63 -65 54
-121 -66 -237 -184 -180 -109 53 -96 220 19 255 43 13 55 11 102 -10z m831
-29 c66 -46 84 -131 41 -191 -78 -109 -250 -59 -250 73 0 114 120 182 209 118z
m844 -39 c59 -59 45 -169 -26 -212 -94 -58 -207 9 -207 123 0 117 148 174 233
89z m794 -2 c86 -52 82 -189 -6 -235 -17 -8 -50 -15 -75 -15 -36 0 -52 6 -80
31 -66 57 -66 147 -2 207 30 27 43 32 83 32 30 0 60 -7 80 -20z m-14861 -52
c114 -78 59 -252 -78 -250 -139 2 -187 182 -68 256 37 23 107 20 146 -6z
m-819 -38 c87 -53 82 -189 -8 -236 -48 -24 -122 -15 -159 21 -64 61 -61 145 5
204 29 25 44 31 83 31 29 0 59 -8 79 -20z m-856 -20 c112 -31 135 -190 36
-250 -94 -58 -207 9 -207 122 0 69 52 124 130 137 3 1 21 -4 41 -9z m-801 -46
c72 -29 103 -120 66 -192 -32 -63 -113 -88 -179 -57 -106 50 -101 202 8 251
40 17 57 17 105 -2z m-791 -51 c64 -47 76 -134 27 -198 -103 -134 -317 15
-223 156 45 68 135 87 196 42z m-831 -33 c97 -59 92 -190 -9 -243 -67 -35
-165 5 -189 79 -40 120 91 229 198 164z m15364 -77 c96 -86 40 -243 -87 -243
-125 0 -186 148 -96 234 49 47 136 52 183 9z m807 -13 c57 -30 78 -127 41
-187 -25 -41 -68 -63 -124 -63 -85 0 -151 89 -127 169 27 92 122 128 210 81z
m817 -19 c34 -21 64 -75 64 -116 0 -41 -30 -95 -64 -116 -41 -25 -110 -25
-151 1 -35 22 -65 73 -65 111 0 36 37 102 67 121 37 23 110 23 149 -1z m828
-31 c136 -120 -17 -316 -169 -216 -27 18 -55 74 -55 111 0 112 141 178 224
105z m796 -5 c69 -36 94 -106 61 -179 -46 -105 -193 -108 -246 -6 -60 115 70
245 185 185z m828 -25 c95 -58 82 -204 -21 -245 -92 -37 -187 29 -187 131 0
103 119 168 208 114z m-15828 -59 c97 -51 97 -192 0 -241 -50 -26 -83 -25
-130 1 -47 27 -70 66 -70 119 0 107 107 171 200 121z m-820 -36 c69 -36 94
-106 61 -179 -16 -38 -29 -51 -67 -67 -73 -33 -143 -8 -179 61 -60 115 70 245
185 185z m-800 -51 c60 -51 75 -112 41 -174 -61 -114 -232 -88 -257 40 -9 40
1 73 33 110 32 38 55 49 110 49 31 1 49 -6 73 -25z m-823 -34 c86 -52 82 -189
-6 -235 -17 -8 -50 -15 -75 -15 -36 0 -52 6 -80 30 -70 61 -70 148 -1 209 29
25 44 31 83 31 29 0 59 -8 79 -20z m-819 -37 c84 -52 80 -193 -7 -238 -135
-69 -270 100 -168 211 48 52 117 63 175 27z m-833 -33 c50 -24 75 -65 75 -122
0 -137 -178 -190 -250 -74 -44 72 -14 167 65 202 41 18 62 17 110 -6z m16312
-60 c45 -27 66 -64 66 -114 0 -80 -59 -139 -139 -139 -134 0 -185 184 -71 253
41 25 103 25 144 0z m814 -15 c43 -23 69 -71 69 -127 0 -38 -6 -54 -30 -82
-61 -70 -148 -70 -209 -1 -54 61 -38 163 32 205 39 24 97 26 138 5z m815 -21
c67 -32 96 -129 57 -195 -19 -31 -85 -69 -122 -69 -36 0 -95 36 -115 70 -69
118 56 253 180 194z m812 -18 c104 -54 109 -184 10 -247 -68 -42 -162 -5 -193
76 -18 47 -13 81 21 133 30 46 110 65 162 38z m838 -31 c89 -58 81 -188 -16
-238 -93 -48 -209 33 -196 137 12 102 127 157 212 101z m819 -19 c84 -55 82
-176 -4 -233 -91 -61 -219 16 -208 126 11 105 126 163 212 107z m-16773 -78
c106 -75 53 -248 -76 -248 -106 0 -170 98 -127 194 35 81 131 106 203 54z
m-849 -22 c52 -22 79 -59 85 -115 3 -39 0 -57 -17 -84 -54 -88 -190 -86 -236
4 -38 72 -10 158 60 190 48 22 66 23 108 5z m-803 -45 c88 -47 97 -182 15
-235 -94 -61 -215 3 -215 114 0 107 107 171 200 121z m-809 -44 c77 -51 88
-148 24 -212 -65 -64 -161 -53 -213 25 -44 66 -12 169 63 200 38 16 91 11 126
-13z m-795 -60 c19 -20 36 -48 40 -62 17 -67 -30 -144 -99 -163 -100 -28 -197
66 -172 165 3 15 24 44 46 66 38 38 41 39 96 35 49 -4 61 -10 89 -41z m-838
-17 c59 -36 80 -126 42 -187 -24 -41 -67 -63 -120 -63 -56 0 -96 26 -121 78
-29 58 -19 104 31 154 33 34 43 38 86 38 31 0 61 -7 82 -20z m17261 -47 c109
-80 50 -253 -85 -253 -71 0 -139 81 -130 154 12 104 133 159 215 99z m797 -9
c100 -47 108 -179 15 -241 -118 -79 -267 70 -188 188 24 37 78 69 115 69 13 0
39 -7 58 -16z m822 -24 c34 -15 47 -29 63 -65 69 -156 -143 -273 -238 -132
-46 67 -19 161 57 199 44 23 65 22 118 -2z m805 -14 c54 -22 87 -70 87 -124 0
-113 -113 -180 -207 -122 -96 58 -76 218 32 249 43 13 52 13 88 -3z m810 -15
c9 -1 34 -16 53 -34 66 -60 56 -171 -19 -217 -131 -80 -277 89 -176 205 30 33
77 55 109 49 8 -1 23 -3 33 -3z m856 -41 c57 -30 78 -127 41 -187 -27 -46 -72
-66 -132 -61 -117 12 -164 150 -79 232 46 44 107 50 170 16z m-17738 -83 c45
-30 73 -87 65 -133 -14 -74 -100 -133 -165 -114 -96 27 -134 105 -97 195 30
71 129 97 197 52z m-815 -36 c85 -52 81 -182 -8 -235 -36 -22 -106 -20 -144 3
-34 21 -64 75 -64 116 0 41 30 95 64 116 18 11 50 19 76 19 26 0 58 -8 76 -19z
m-823 -38 c60 -30 83 -111 51 -179 -53 -110 -220 -92 -256 28 -9 31 -8 45 6
82 20 52 32 63 83 81 40 14 70 11 116 -12z m-840 -27 c54 -23 80 -59 84 -118
5 -64 -18 -107 -70 -131 -97 -47 -197 15 -199 123 -1 52 29 99 77 121 48 22
66 23 108 5z m-803 -45 c96 -51 96 -192 0 -241 -49 -25 -81 -25 -128 -1 -97
50 -97 191 0 243 43 23 85 22 128 -1z m-820 -36 c71 -37 97 -138 53 -201 -84
-118 -266 -49 -250 93 10 93 115 151 197 108z m18220 -39 c64 -29 89 -127 49
-193 -81 -131 -289 -41 -249 108 24 88 112 126 200 85z m822 -22 c62 -32 84
-112 51 -181 -22 -47 -66 -73 -125 -73 -87 0 -154 88 -129 170 27 91 117 128
203 84z m824 -23 c34 -21 64 -75 64 -116 0 -73 -64 -135 -140 -135 -103 0
-168 102 -124 195 23 48 67 75 124 75 26 0 58 -8 76 -19z m815 -18 c31 -18 69
-85 69 -119 -1 -39 -38 -103 -71 -119 -122 -64 -255 64 -191 183 36 67 128 93
193 55z m844 -45 c44 -47 52 -97 26 -151 -24 -50 -69 -80 -120 -80 -110 0
-177 117 -120 209 30 49 64 65 128 61 47 -3 59 -9 86 -39z m786 7 c83 -43 94
-173 19 -232 -28 -23 -82 -33 -120 -23 -113 30 -136 190 -37 250 39 24 97 26
138 5z m-18691 -96 c99 -56 92 -191 -12 -245 -37 -19 -77 -18 -118 5 -95 51
-95 191 0 242 45 25 84 24 130 -2z m-820 -37 c66 -33 92 -126 54 -191 -10 -17
-38 -41 -62 -52 -58 -29 -104 -19 -154 31 -33 33 -38 44 -38 84 0 58 19 97 62
125 40 25 91 27 138 3z m-820 -37 c103 -53 100 -194 -5 -245 -149 -72 -273
142 -137 235 42 29 98 33 142 10z m-800 -51 c35 -30 60 -73 60 -105 0 -37 -38
-103 -69 -122 -38 -23 -108 -22 -147 2 -35 21 -64 75 -64 118 0 107 139 175
220 107z m-828 -30 c87 -45 88 -182 1 -235 -27 -17 -45 -20 -86 -16 -42 4 -56
10 -83 40 -44 47 -51 92 -26 149 33 76 116 102 194 62z m-814 -40 c86 -56 80
-194 -11 -237 -97 -46 -200 17 -200 124 0 104 122 170 211 113z m19169 -24
c89 -54 90 -167 1 -233 -32 -24 -109 -25 -144 -2 -58 38 -81 124 -49 186 34
64 128 89 192 49z m814 -15 c43 -23 69 -71 69 -127 0 -38 -6 -54 -30 -82 -61
-69 -149 -69 -209 -1 -54 61 -38 163 32 205 39 24 97 26 138 5z m823 -24 c83
-55 89 -168 10 -230 -76 -59 -188 -17 -215 81 -8 32 -6 46 10 83 34 78 128
110 195 66z m843 -44 c63 -62 53 -164 -20 -212 -92 -60 -211 6 -211 116 0 125
143 185 231 96z m791 3 c49 -30 74 -76 69 -129 -15 -142 -194 -176 -260 -50
-34 65 -6 146 64 181 45 23 86 23 127 -2z m827 -24 c84 -55 82 -176 -4 -233
-118 -79 -267 70 -188 188 44 66 130 86 192 45z m-19675 -92 c100 -40 117
-157 35 -234 -22 -21 -36 -25 -87 -25 -56 0 -62 2 -93 37 -40 43 -50 74 -41
123 9 46 42 83 91 100 51 18 47 18 95 -1z m-792 -50 c33 -22 62 -74 62 -112 0
-89 -89 -160 -174 -138 -65 16 -114 94 -102 162 8 39 63 100 98 107 34 7 90
-2 116 -19z m-840 -28 c57 -30 77 -63 77 -128 0 -56 -2 -62 -37 -93 -43 -39
-74 -50 -122 -41 -124 23 -148 203 -34 259 41 20 81 21 116 3z m-811 -43 c48
-22 73 -66 73 -127 0 -43 -4 -53 -38 -86 -50 -50 -96 -60 -154 -31 -53 25 -78
65 -78 123 0 104 101 167 197 121z m-817 -38 c103 -53 100 -194 -5 -245 -156
-75 -273 146 -129 241 35 23 94 25 134 4z m-790 -63 c49 -48 60 -97 35 -153
-47 -103 -200 -107 -248 -6 -46 97 18 197 127 197 43 0 53 -4 86 -38z m20099
10 c124 -63 93 -241 -45 -258 -109 -14 -191 111 -134 204 41 66 113 88 179 54z
m815 -16 c49 -20 80 -70 80 -126 0 -107 -113 -174 -202 -120 -97 59 -93 192 8
242 42 22 70 22 114 4z m824 -26 c33 -15 47 -29 62 -63 53 -120 -66 -238 -183
-182 -106 50 -101 202 8 251 41 18 63 17 113 -6z m805 -14 c54 -22 87 -70 87
-124 0 -109 -93 -170 -195 -128 -75 32 -101 144 -48 207 27 32 74 58 106 59
10 0 32 -6 50 -14z m808 -16 c112 -31 135 -190 36 -250 -63 -39 -158 -15 -190
47 -49 94 4 194 113 212 3 1 21 -4 41 -9z m862 -42 c81 -57 72 -189 -16 -234
-46 -24 -120 -14 -158 22 -123 118 34 309 174 212z m-20622 -103 c43 -23 69
-71 69 -127 0 -39 -6 -54 -31 -82 -58 -67 -149 -67 -208 -1 -54 61 -38 163 32
205 39 24 97 26 138 5z m-796 -56 c66 -59 66 -150 -1 -208 -85 -75 -224 -12
-224 102 0 81 58 137 142 137 39 0 54 -6 83 -31z m-831 -28 c34 -19 66 -74 66
-114 0 -102 -126 -172 -213 -118 -59 36 -81 108 -54 174 17 39 36 55 84 72 42
15 73 11 117 -14z m-817 -36 c108 -71 66 -240 -64 -252 -114 -11 -190 116
-127 212 38 59 132 78 191 40z m-844 -29 c18 -7 43 -26 57 -41 21 -22 25 -37
25 -87 0 -56 -2 -62 -37 -93 -43 -40 -74 -50 -125 -40 -122 23 -144 203 -31
258 41 20 69 21 111 3z m-806 -43 c46 -21 73 -67 73 -121 0 -56 -25 -99 -72
-123 -48 -25 -81 -24 -128 2 -47 27 -70 66 -70 121 0 104 101 167 197 121z
m21101 -9 c86 -56 79 -195 -12 -238 -122 -58 -241 57 -187 179 34 76 128 104
199 59z m813 -20 c60 -30 85 -113 54 -177 -53 -113 -220 -97 -257 25 -9 31 -8
45 6 82 20 52 32 64 83 81 41 14 72 11 114 -11z m833 -27 c26 -17 56 -74 56
-106 0 -41 -32 -101 -65 -121 -79 -49 -190 -5 -210 83 -29 124 110 215 219
144z m826 -35 c50 -50 60 -96 31 -154 -11 -24 -34 -51 -50 -61 -38 -23 -108
-22 -147 2 -34 21 -64 75 -64 116 0 41 30 95 64 116 19 12 50 19 80 19 43 0
53 -4 86 -38z m788 4 c90 -47 103 -158 27 -225 -86 -75 -225 -12 -225 103 0
99 111 167 198 122z m-20732 -151 c86 -56 82 -179 -8 -236 -90 -56 -217 28
-204 135 12 102 127 157 212 101z m-830 -31 c101 -48 96 -196 -9 -247 -74 -37
-163 6 -186 88 -32 117 84 212 195 159z m-815 -39 c43 -23 69 -71 69 -127 0
-39 -6 -54 -31 -82 -58 -67 -149 -67 -208 -1 -54 61 -38 163 32 205 39 24 97
26 138 5z m-823 -39 c90 -47 103 -158 27 -225 -86 -75 -225 -12 -225 102 0
103 108 170 198 123z m-795 -56 c71 -62 73 -136 7 -202 -33 -33 -43 -38 -85
-38 -109 0 -172 95 -131 195 32 77 145 101 209 45z m21236 -34 c34 -33 50 -87
40 -136 -18 -84 -133 -131 -207 -84 -82 53 -81 183 1 235 47 30 127 22 166
-15z m798 -6 c46 -27 66 -72 61 -132 -12 -122 -155 -165 -237 -73 -77 88 -13
225 104 225 22 0 54 -9 72 -20z m817 -19 c83 -55 89 -168 10 -230 -40 -32 -85
-36 -136 -13 -79 34 -107 128 -61 200 36 58 131 80 187 43z m843 -43 c107
-108 -11 -284 -148 -222 -105 47 -115 177 -19 242 52 35 120 27 167 -20z
m-20892 -169 c98 -86 41 -239 -90 -239 -108 0 -173 121 -112 211 29 43 60 59
119 59 39 0 54 -6 83 -31z m-825 -29 c113 -81 46 -259 -93 -247 -103 9 -161
124 -104 208 45 68 132 85 197 39z m-824 -35 c86 -56 82 -180 -8 -235 -93 -57
-218 25 -204 134 12 102 127 157 212 101z m-825 -37 c103 -58 85 -211 -29
-249 -68 -22 -138 13 -166 82 -49 122 79 232 195 167z m21370 -61 c94 -63 85
-193 -17 -242 -63 -30 -136 -6 -174 58 -73 119 76 261 191 184z m803 -11 c67
-28 98 -106 70 -175 -43 -107 -176 -119 -242 -21 -19 28 -23 44 -19 83 4 50
23 78 72 108 36 22 74 24 119 5z m826 -25 c95 -51 95 -191 0 -242 -94 -51
-200 14 -200 123 0 51 23 88 74 119 39 24 82 24 126 0z m-21015 -211 c62 -38
83 -126 45 -187 -39 -64 -105 -85 -173 -55 -78 34 -106 128 -60 200 37 59 128
79 188 42z m-824 -35 c16 -9 39 -30 49 -48 49 -80 -3 -201 -90 -207 -65 -5
-83 1 -121 39 -34 34 -39 44 -39 85 0 26 7 60 15 77 32 62 121 87 186 54z
m-796 -56 c92 -82 49 -225 -73 -237 -86 -8 -152 49 -152 131 0 82 54 136 137
137 44 0 58 -5 88 -31z m21493 -75 c34 -22 62 -74 62 -114 0 -133 -167 -189
-249 -84 -32 41 -36 85 -12 138 34 77 128 105 199 60z m799 -13 c96 -44 110
-155 28 -231 -22 -21 -37 -25 -85 -25 -51 0 -63 4 -89 29 -77 74 -60 185 34
227 50 23 60 23 112 0z m-21138 -248 c85 -63 75 -187 -20 -235 -66 -34 -138
-12 -179 54 -74 122 84 265 199 181z m-831 -33 c66 -41 88 -113 54 -179 -63
-124 -241 -93 -258 45 -14 109 111 191 204 134z m21653 -123 c43 -29 59 -60
59 -118 0 -75 -57 -129 -137 -129 -50 0 -82 18 -110 59 -82 122 66 270 188
188z m-21289 -274 c96 -86 40 -243 -87 -243 -80 0 -135 57 -135 139 0 44 5 56
33 87 50 55 139 63 189 17z"/>
</g>
</svg>
