<?xml version="1.0" encoding="UTF-8"?>
<svg xmlns="http://www.w3.org/2000/svg" xmlns:xlink="http://www.w3.org/1999/xlink" width="50px" height="47px" viewBox="0 0 49 47" version="1.1">
<g id="surface1">
<path style=" stroke:none;fill-rule:nonzero;fill:rgb(0%,0%,0%);fill-opacity:1;" d="M 31.964844 6.074219 C 30.53125 6.144531 29.113281 6.40625 28.101562 6.785156 C 27.574219 6.980469 27.230469 7.222656 27.097656 7.492188 C 27.015625 7.660156 27.03125 7.796875 27.140625 7.902344 C 27.242188 8.003906 27.425781 8.0625 27.679688 8.078125 C 27.753906 8.082031 28.015625 8.078125 28.265625 8.0625 C 28.878906 8.03125 30.066406 8.019531 30.492188 8.042969 C 32.117188 8.125 33.402344 8.4375 34.457031 9.007812 C 34.644531 9.109375 34.871094 9.246094 35.019531 9.355469 C 35.28125 9.539062 35.433594 9.757812 35.507812 10.050781 C 35.550781 10.226562 35.550781 10.601562 35.503906 10.816406 C 35.410156 11.269531 35.191406 11.804688 34.902344 12.300781 C 34.835938 12.414062 34.816406 12.433594 34.773438 12.445312 C 34.703125 12.46875 34.609375 12.550781 34.578125 12.625 C 34.5625 12.65625 34.550781 12.714844 34.550781 12.757812 L 34.550781 12.835938 L 34.441406 12.835938 C 34.34375 12.835938 34.324219 12.839844 34.261719 12.878906 C 34.222656 12.90625 34.179688 12.949219 34.15625 12.992188 C 34.117188 13.046875 34.113281 13.074219 34.109375 13.15625 C 34.109375 13.238281 34.105469 13.253906 34.089844 13.246094 C 33.917969 13.171875 33.734375 13.234375 33.652344 13.394531 C 33.589844 13.515625 33.601562 13.65625 33.683594 13.757812 L 33.710938 13.792969 L 33.148438 14.320312 C 32.839844 14.609375 32.550781 14.875 32.507812 14.917969 C 32.464844 14.957031 31.867188 15.515625 31.179688 16.15625 C 30.488281 16.796875 29.890625 17.355469 29.847656 17.394531 C 29.757812 17.480469 29.433594 17.785156 29.203125 17.996094 C 29.117188 18.078125 28.996094 18.191406 28.9375 18.246094 C 28.878906 18.300781 28.800781 18.375 28.757812 18.417969 C 28.636719 18.527344 27.445312 19.636719 26.957031 20.09375 C 26.496094 20.523438 26.292969 20.710938 25.429688 21.519531 C 25.125 21.800781 24.875 22.03125 24.871094 22.03125 C 24.867188 22.03125 24.753906 21.933594 24.621094 21.816406 C 23.183594 20.535156 21.941406 19.421875 21.597656 19.117188 C 21.363281 18.910156 20.949219 18.539062 20.679688 18.296875 C 20.40625 18.050781 19.945312 17.640625 19.65625 17.382812 C 19.367188 17.125 18.835938 16.648438 18.472656 16.328125 C 18.113281 16.003906 17.753906 15.683594 17.683594 15.621094 C 17.609375 15.554688 17.15625 15.152344 16.679688 14.722656 C 16.199219 14.292969 15.804688 13.9375 15.804688 13.929688 C 15.804688 13.921875 15.816406 13.898438 15.832031 13.878906 C 15.917969 13.757812 15.90625 13.59375 15.808594 13.480469 C 15.707031 13.359375 15.566406 13.328125 15.40625 13.390625 C 15.390625 13.398438 15.386719 13.382812 15.386719 13.324219 C 15.386719 13.238281 15.339844 13.125 15.285156 13.074219 C 15.269531 13.058594 15.222656 13.027344 15.183594 13.011719 C 15.128906 12.984375 15.097656 12.980469 15.023438 12.988281 L 14.929688 12.996094 L 14.929688 12.917969 C 14.929688 12.785156 14.84375 12.664062 14.726562 12.617188 C 14.703125 12.609375 14.671875 12.59375 14.660156 12.589844 C 14.625 12.574219 14.40625 12.191406 14.273438 11.914062 C 14.0625 11.488281 13.945312 11.125 13.902344 10.777344 C 13.875 10.582031 13.890625 10.320312 13.9375 10.164062 C 14.042969 9.792969 14.230469 9.597656 14.804688 9.246094 C 15.714844 8.695312 16.832031 8.34375 18.199219 8.175781 C 18.949219 8.085938 19.648438 8.066406 21.253906 8.085938 C 21.71875 8.089844 21.789062 8.089844 21.890625 8.066406 C 22.117188 8.015625 22.273438 7.910156 22.316406 7.78125 C 22.402344 7.519531 22.085938 7.15625 21.574219 6.929688 C 20.859375 6.613281 19.589844 6.339844 18.339844 6.230469 C 17.507812 6.160156 16.523438 6.164062 15.714844 6.238281 C 12.992188 6.492188 10.605469 7.539062 8.636719 9.339844 C 7.90625 10.011719 7.15625 10.925781 6.746094 11.652344 L 6.667969 11.789062 L 6.6875 11.851562 C 6.714844 11.933594 6.703125 12.125 6.664062 12.304688 C 6.53125 12.90625 6.152344 13.660156 5.699219 14.230469 C 5.203125 14.855469 4.636719 15.277344 3.992188 15.507812 L 3.859375 15.550781 L 3.652344 15.78125 C 3.414062 16.042969 3.230469 16.261719 3.089844 16.453125 C 2.796875 16.839844 2.617188 17.183594 2.617188 17.339844 C 2.617188 17.496094 2.960938 17.941406 3.488281 18.476562 C 4.507812 19.515625 5.46875 20.117188 5.957031 20.023438 C 6.160156 19.988281 6.339844 19.871094 6.601562 19.605469 C 6.800781 19.402344 6.972656 19.183594 7.179688 18.875 C 7.441406 18.484375 7.453125 18.457031 7.519531 18.195312 C 7.621094 17.78125 7.738281 17.464844 7.914062 17.105469 C 8.398438 16.117188 9.191406 15.421875 10.199219 15.097656 C 10.886719 14.875 11.6875 14.839844 12.292969 15.011719 C 12.484375 15.066406 12.5625 15.105469 12.621094 15.171875 C 12.707031 15.277344 12.839844 15.328125 12.953125 15.296875 L 13.007812 15.28125 L 13.007812 15.359375 C 13.007812 15.496094 13.085938 15.617188 13.203125 15.667969 C 13.269531 15.695312 13.398438 15.695312 13.460938 15.667969 L 13.507812 15.648438 L 13.507812 15.730469 C 13.507812 15.863281 13.558594 15.957031 13.667969 16.023438 C 13.753906 16.070312 13.84375 16.082031 13.929688 16.050781 C 14 16.027344 14.003906 16.027344 14.035156 16.054688 C 14.050781 16.070312 14.304688 16.296875 14.601562 16.5625 C 15.835938 17.664062 16.242188 18.027344 16.40625 18.175781 C 16.585938 18.335938 19.121094 20.597656 21.488281 22.710938 C 22.21875 23.359375 22.820312 23.898438 22.832031 23.90625 C 22.847656 23.925781 22.839844 23.933594 22.300781 24.4375 L 22.238281 24.496094 L 22.140625 24.46875 C 21.496094 24.285156 20.734375 24.40625 20.160156 24.78125 C 20 24.886719 19.925781 24.949219 19.550781 25.289062 C 18.535156 26.214844 18.167969 26.546875 17.683594 26.988281 C 17.386719 27.257812 16.992188 27.613281 16.808594 27.78125 C 16.621094 27.949219 16.316406 28.230469 16.125 28.402344 C 15.933594 28.574219 15.625 28.855469 15.4375 29.023438 C 15.25 29.195312 14.886719 29.527344 14.625 29.765625 C 14.144531 30.199219 13.097656 31.148438 11.117188 32.949219 C 10.519531 33.492188 9.90625 34.050781 9.75 34.1875 C 8.378906 35.433594 7.550781 36.191406 7.460938 36.285156 C 7.109375 36.65625 6.886719 37.125 6.808594 37.664062 C 6.777344 37.886719 6.789062 38.261719 6.832031 38.480469 C 6.898438 38.820312 7.058594 39.195312 7.246094 39.460938 C 7.65625 40.039062 8.28125 40.414062 8.976562 40.5 C 9.15625 40.519531 9.558594 40.507812 9.714844 40.476562 C 10.15625 40.390625 10.558594 40.199219 10.871094 39.925781 C 10.964844 39.84375 11.480469 39.375 13.578125 37.46875 C 15.25 35.953125 16.378906 34.925781 18.726562 32.796875 C 19.980469 31.65625 21.21875 30.53125 21.476562 30.296875 C 22.863281 29.035156 23.3125 28.625 23.386719 28.53125 C 23.789062 28.050781 23.984375 27.488281 23.980469 26.847656 C 23.980469 26.730469 23.984375 26.628906 23.992188 26.621094 C 23.996094 26.617188 24.207031 26.421875 24.457031 26.191406 L 24.90625 25.769531 L 24.964844 25.816406 C 25 25.847656 25.199219 26.023438 25.410156 26.214844 L 25.796875 26.558594 L 25.804688 26.828125 C 25.8125 27.125 25.839844 27.300781 25.921875 27.554688 C 26.039062 27.914062 26.253906 28.269531 26.507812 28.527344 C 26.570312 28.585938 27.019531 28.984375 27.503906 29.40625 C 28.441406 30.222656 31.359375 32.757812 34.054688 35.101562 C 34.957031 35.886719 36.4375 37.171875 37.34375 37.964844 C 38.253906 38.753906 39.046875 39.441406 39.109375 39.496094 C 39.417969 39.765625 39.761719 39.945312 40.15625 40.042969 C 40.398438 40.105469 40.5625 40.121094 40.828125 40.109375 C 41.53125 40.085938 42.125 39.804688 42.613281 39.257812 C 42.796875 39.054688 43.003906 38.691406 43.097656 38.410156 C 43.402344 37.5 43.15625 36.46875 42.472656 35.800781 C 42.425781 35.753906 42.070312 35.441406 41.683594 35.105469 C 41.300781 34.773438 39.949219 33.597656 38.683594 32.496094 C 37.414062 31.394531 36.019531 30.183594 35.582031 29.800781 C 35.144531 29.417969 34.492188 28.851562 34.132812 28.539062 C 33.113281 27.65625 32.660156 27.261719 31.792969 26.507812 C 29.640625 24.636719 29.78125 24.753906 29.617188 24.648438 C 29.492188 24.566406 29.316406 24.476562 29.160156 24.417969 C 28.675781 24.230469 28.097656 24.207031 27.589844 24.355469 L 27.492188 24.382812 L 27.214844 24.132812 C 27.0625 23.996094 26.9375 23.882812 26.9375 23.882812 C 26.9375 23.878906 27.246094 23.585938 27.625 23.234375 C 28.003906 22.882812 28.558594 22.363281 28.859375 22.082031 C 30.648438 20.414062 31.660156 19.472656 32.640625 18.558594 C 33.25 17.992188 33.816406 17.460938 33.902344 17.382812 C 33.988281 17.300781 34.390625 16.925781 34.800781 16.542969 L 35.542969 15.847656 L 35.597656 15.867188 C 35.816406 15.945312 36.035156 15.78125 36.035156 15.542969 C 36.035156 15.46875 36.039062 15.460938 36.0625 15.46875 C 36.175781 15.515625 36.28125 15.507812 36.378906 15.449219 C 36.476562 15.386719 36.519531 15.308594 36.523438 15.183594 C 36.527344 15.085938 36.53125 15.082031 36.558594 15.089844 C 36.605469 15.105469 36.714844 15.097656 36.777344 15.070312 C 36.8125 15.058594 36.863281 15.019531 36.902344 14.972656 C 36.953125 14.914062 36.992188 14.886719 37.058594 14.859375 C 37.394531 14.722656 37.789062 14.660156 38.289062 14.675781 C 38.902344 14.691406 39.414062 14.8125 39.949219 15.082031 C 40.1875 15.199219 40.433594 15.355469 40.621094 15.503906 C 40.761719 15.621094 41.035156 15.890625 41.160156 16.035156 C 41.582031 16.539062 41.898438 17.1875 42.097656 17.949219 C 42.136719 18.101562 42.144531 18.121094 42.28125 18.332031 C 42.53125 18.714844 42.757812 19 43.003906 19.246094 C 43.246094 19.492188 43.476562 19.636719 43.664062 19.667969 C 44.140625 19.742188 44.996094 19.207031 45.953125 18.230469 C 46.421875 17.757812 46.773438 17.328125 46.914062 17.054688 C 46.972656 16.941406 46.96875 16.859375 46.886719 16.6875 C 46.726562 16.335938 46.441406 15.964844 45.886719 15.375 C 45.691406 15.164062 45.671875 15.148438 45.597656 15.128906 C 45.554688 15.117188 45.449219 15.078125 45.363281 15.042969 C 44.695312 14.78125 44.0625 14.257812 43.558594 13.542969 C 43.046875 12.816406 42.679688 11.867188 42.769531 11.507812 C 42.785156 11.445312 42.785156 11.441406 42.707031 11.3125 C 42.210938 10.488281 41.367188 9.535156 40.480469 8.800781 C 39.511719 7.996094 38.390625 7.339844 37.210938 6.886719 C 36.058594 6.441406 34.917969 6.195312 33.585938 6.097656 C 33.230469 6.070312 32.3125 6.058594 31.964844 6.074219 Z M 31.15625 7.441406 C 31.1875 7.445312 31.304688 7.453125 31.414062 7.460938 C 32.464844 7.542969 33.492188 7.761719 34.222656 8.066406 C 34.746094 8.285156 35.136719 8.535156 35.476562 8.878906 C 35.96875 9.371094 36.246094 9.933594 36.316406 10.566406 C 36.390625 11.28125 36.152344 12.097656 35.671875 12.757812 C 35.65625 12.785156 35.664062 12.796875 35.722656 12.867188 C 35.890625 13.066406 36.417969 13.589844 36.757812 13.894531 L 36.816406 13.949219 L 37.015625 13.84375 C 37.886719 13.390625 38.757812 13.308594 39.847656 13.582031 C 40.085938 13.640625 40.691406 13.839844 40.816406 13.898438 C 40.859375 13.917969 40.894531 13.933594 40.898438 13.933594 C 40.902344 13.933594 41.179688 13.691406 41.507812 13.390625 L 42.105469 12.851562 L 42.105469 12.792969 C 42.101562 12.761719 42.097656 12.644531 42.089844 12.53125 C 42.074219 12.207031 42.125 11.933594 42.261719 11.660156 C 42.316406 11.542969 42.457031 11.332031 42.46875 11.34375 C 42.472656 11.347656 42.449219 11.402344 42.417969 11.464844 C 42.082031 12.175781 42.222656 13.007812 42.832031 13.929688 C 43.148438 14.410156 43.605469 14.941406 44.222656 15.550781 L 44.460938 15.785156 L 44.640625 15.78125 C 44.78125 15.777344 44.84375 15.769531 44.917969 15.746094 C 45.152344 15.671875 45.3125 15.550781 45.390625 15.390625 L 45.433594 15.300781 L 45.425781 15.371094 C 45.390625 15.636719 45.058594 15.910156 44.710938 15.957031 L 44.628906 15.964844 L 44.578125 16.121094 C 44.382812 16.699219 44.007812 17.082031 43.625 17.101562 L 43.519531 17.105469 L 43.445312 17.230469 C 43.273438 17.515625 43.074219 17.742188 42.902344 17.847656 C 42.777344 17.921875 42.617188 17.957031 42.539062 17.929688 C 42.519531 17.917969 42.527344 17.914062 42.582031 17.90625 C 42.824219 17.871094 43.039062 17.625 43.300781 17.09375 L 43.414062 16.867188 L 43.492188 16.882812 C 43.664062 16.914062 43.824219 16.847656 44.003906 16.667969 C 44.1875 16.480469 44.328125 16.246094 44.433594 15.941406 L 44.476562 15.820312 L 44.375 15.753906 C 44.320312 15.714844 44.207031 15.632812 44.121094 15.570312 C 43.195312 14.875 42.496094 14.011719 42.238281 13.253906 C 42.210938 13.179688 42.1875 13.113281 42.183594 13.109375 C 42.175781 13.101562 42.019531 13.230469 41.835938 13.398438 C 41.652344 13.5625 41.410156 13.777344 41.304688 13.875 C 41.195312 13.972656 41.105469 14.058594 41.105469 14.0625 C 41.105469 14.066406 41.164062 14.117188 41.242188 14.175781 C 41.40625 14.304688 41.9375 14.835938 42.15625 15.09375 C 42.554688 15.566406 42.90625 16.042969 43.179688 16.480469 C 43.285156 16.652344 43.359375 16.785156 43.339844 16.765625 C 43.335938 16.761719 43.285156 16.683594 43.222656 16.59375 C 42.835938 16.015625 42.375 15.449219 41.875 14.933594 C 41.421875 14.472656 41.125 14.222656 40.855469 14.078125 C 40.644531 13.96875 40.085938 13.792969 39.664062 13.707031 C 38.628906 13.496094 37.742188 13.628906 36.949219 14.117188 C 36.867188 14.164062 36.800781 14.203125 36.792969 14.199219 C 36.769531 14.191406 36.445312 13.898438 36.1875 13.652344 C 35.910156 13.390625 35.570312 13.039062 35.476562 12.910156 C 35.386719 12.789062 35.390625 12.769531 35.488281 12.632812 C 35.824219 12.175781 36.03125 11.652344 36.09375 11.101562 C 36.117188 10.898438 36.101562 10.554688 36.066406 10.359375 C 35.921875 9.632812 35.402344 8.945312 34.660156 8.503906 C 34.3125 8.296875 33.847656 8.109375 33.289062 7.949219 C 32.035156 7.59375 30.160156 7.4375 28.628906 7.5625 C 28.261719 7.59375 27.761719 7.671875 27.574219 7.726562 C 27.476562 7.753906 27.460938 7.75 27.550781 7.714844 C 27.882812 7.59375 28.578125 7.488281 29.398438 7.433594 C 29.59375 7.421875 31.054688 7.425781 31.15625 7.441406 Z M 20.398438 7.503906 C 21.019531 7.550781 21.535156 7.628906 21.816406 7.71875 C 21.910156 7.75 21.945312 7.769531 21.851562 7.746094 C 21.683594 7.695312 21.277344 7.636719 20.894531 7.601562 C 20.609375 7.578125 19.316406 7.574219 18.976562 7.601562 C 17.261719 7.726562 15.960938 8.023438 15.027344 8.503906 C 14.660156 8.691406 14.433594 8.851562 14.175781 9.101562 C 13.664062 9.605469 13.390625 10.160156 13.34375 10.773438 C 13.292969 11.449219 13.519531 12.183594 13.960938 12.769531 C 14.035156 12.871094 14.070312 12.925781 14.070312 12.953125 C 14.070312 12.996094 14.019531 13.082031 13.9375 13.183594 C 13.738281 13.425781 13.113281 14.058594 12.773438 14.363281 L 12.714844 14.414062 L 12.605469 14.351562 C 12.242188 14.132812 11.835938 13.980469 11.410156 13.90625 C 11.167969 13.859375 10.671875 13.851562 10.394531 13.882812 C 9.992188 13.929688 9.488281 14.050781 9.007812 14.226562 C 8.886719 14.269531 8.75 14.324219 8.703125 14.347656 C 8.15625 14.625 7.144531 15.722656 6.425781 16.816406 C 6.230469 17.117188 6.210938 17.140625 6.25 17.0625 C 6.355469 16.859375 6.671875 16.363281 6.929688 16.003906 C 7.367188 15.394531 7.949219 14.738281 8.292969 14.464844 C 8.359375 14.410156 8.414062 14.367188 8.414062 14.367188 C 8.414062 14.359375 7.332031 13.429688 7.320312 13.425781 C 7.316406 13.421875 7.296875 13.46875 7.277344 13.527344 C 7.171875 13.886719 6.910156 14.363281 6.613281 14.746094 C 6.238281 15.234375 5.730469 15.722656 5.199219 16.105469 C 5.132812 16.152344 5.082031 16.195312 5.082031 16.199219 C 5.082031 16.207031 5.101562 16.261719 5.121094 16.324219 C 5.289062 16.773438 5.597656 17.144531 5.871094 17.226562 C 5.953125 17.25 6.074219 17.25 6.136719 17.222656 C 6.152344 17.21875 6.171875 17.242188 6.210938 17.320312 C 6.503906 17.914062 6.761719 18.207031 7.011719 18.234375 C 7.125 18.246094 7.0625 18.273438 6.9375 18.261719 C 6.820312 18.257812 6.722656 18.214844 6.605469 18.128906 C 6.480469 18.035156 6.300781 17.828125 6.175781 17.636719 L 6.054688 17.453125 L 5.941406 17.449219 C 5.5625 17.445312 5.167969 17.046875 4.96875 16.472656 C 4.929688 16.355469 4.921875 16.339844 4.890625 16.339844 C 4.820312 16.339844 4.648438 16.292969 4.539062 16.238281 C 4.304688 16.128906 4.164062 15.972656 4.117188 15.777344 C 4.101562 15.703125 4.121094 15.699219 4.144531 15.769531 C 4.152344 15.796875 4.199219 15.859375 4.246094 15.910156 C 4.3125 15.980469 4.355469 16.015625 4.445312 16.058594 C 4.617188 16.140625 4.847656 16.1875 4.976562 16.15625 C 5.023438 16.148438 5.046875 16.148438 5.0625 16.15625 C 5.089844 16.179688 5.769531 15.460938 6.113281 15.046875 C 6.734375 14.292969 7.0625 13.683594 7.199219 13.042969 C 7.238281 12.847656 7.242188 12.460938 7.207031 12.285156 C 7.167969 12.109375 7.113281 11.945312 7.039062 11.796875 C 6.964844 11.648438 6.984375 11.652344 7.09375 11.804688 C 7.230469 12.003906 7.328125 12.246094 7.371094 12.515625 C 7.390625 12.632812 7.394531 12.707031 7.386719 12.882812 C 7.382812 13.007812 7.375 13.117188 7.375 13.136719 C 7.371094 13.160156 7.5 13.273438 7.96875 13.679688 C 8.296875 13.964844 8.574219 14.203125 8.585938 14.214844 C 8.605469 14.230469 8.621094 14.230469 8.683594 14.199219 C 8.863281 14.109375 9.429688 13.910156 9.75 13.828125 C 10.164062 13.722656 10.507812 13.675781 10.898438 13.675781 C 11.484375 13.675781 11.980469 13.796875 12.527344 14.070312 L 12.695312 14.160156 L 13.03125 13.828125 C 13.34375 13.515625 13.667969 13.171875 13.78125 13.027344 L 13.828125 12.964844 L 13.761719 12.878906 C 13.542969 12.585938 13.324219 12.136719 13.222656 11.761719 C 13.140625 11.449219 13.125 11.339844 13.125 10.980469 C 13.125 10.695312 13.128906 10.636719 13.15625 10.492188 C 13.316406 9.691406 13.824219 8.996094 14.589844 8.515625 C 15.492188 7.957031 17.050781 7.570312 18.707031 7.496094 C 18.824219 7.492188 18.921875 7.484375 18.929688 7.480469 C 18.941406 7.46875 20.195312 7.488281 20.398438 7.503906 Z M 34.378906 14.566406 L 34.507812 14.707031 L 33.289062 15.847656 C 32.617188 16.472656 31.613281 17.410156 31.058594 17.925781 C 30.503906 18.445312 29.492188 19.386719 28.8125 20.019531 C 28.132812 20.65625 27.445312 21.296875 27.285156 21.445312 C 27.128906 21.589844 26.957031 21.75 26.90625 21.796875 C 26.289062 22.378906 25.796875 22.832031 25.78125 22.832031 C 25.761719 22.832031 25.285156 22.417969 25.285156 22.402344 C 25.285156 22.394531 25.34375 22.332031 25.421875 22.265625 C 25.589844 22.105469 28.101562 19.765625 29.902344 18.082031 C 30.199219 17.804688 30.882812 17.167969 31.421875 16.667969 C 31.960938 16.164062 32.773438 15.40625 33.226562 14.984375 L 34.054688 14.210938 L 34.152344 14.316406 C 34.207031 14.375 34.308594 14.488281 34.378906 14.566406 Z M 15.902344 14.757812 C 16.097656 14.929688 16.316406 15.125 16.386719 15.1875 C 17.488281 16.171875 20.097656 18.5 21.359375 19.628906 C 24.164062 22.132812 24.742188 22.652344 25.851562 23.640625 C 26.445312 24.167969 26.9375 24.605469 26.945312 24.617188 C 26.960938 24.628906 26.933594 24.652344 26.835938 24.722656 C 26.769531 24.773438 26.652344 24.871094 26.578125 24.9375 C 26.507812 25.007812 26.445312 25.0625 26.441406 25.0625 C 26.433594 25.0625 26.128906 24.792969 24.785156 23.59375 C 24.632812 23.453125 24.125 23 23.652344 22.578125 C 23.183594 22.160156 22.402344 21.460938 21.917969 21.027344 C 21.433594 20.597656 20.980469 20.191406 20.910156 20.128906 C 20.785156 20.019531 19.867188 19.199219 18.164062 17.675781 C 17.695312 17.257812 16.796875 16.457031 16.171875 15.894531 C 15.542969 15.335938 15.027344 14.875 15.023438 14.867188 C 15.019531 14.859375 15.039062 14.835938 15.316406 14.523438 L 15.460938 14.355469 L 15.503906 14.398438 C 15.527344 14.421875 15.707031 14.582031 15.902344 14.757812 Z M 23.507812 24.511719 C 23.636719 24.632812 23.742188 24.734375 23.742188 24.742188 C 23.738281 24.75 23.640625 24.84375 23.519531 24.957031 L 23.304688 25.160156 L 23.191406 25.050781 C 23.125 24.992188 23.023438 24.90625 22.957031 24.863281 C 22.894531 24.816406 22.824219 24.765625 22.808594 24.753906 L 22.773438 24.730469 L 23.003906 24.515625 C 23.128906 24.398438 23.238281 24.300781 23.25 24.300781 C 23.257812 24.296875 23.375 24.394531 23.507812 24.511719 Z M 29.539062 25.164062 C 29.648438 25.222656 29.648438 25.417969 29.539062 25.488281 C 29.375 25.589844 29.175781 25.414062 29.257812 25.246094 C 29.3125 25.132812 29.421875 25.097656 29.539062 25.164062 Z M 20.375 25.289062 C 20.386719 25.289062 20.421875 25.3125 20.449219 25.335938 C 20.539062 25.421875 20.527344 25.578125 20.421875 25.644531 C 20.292969 25.722656 20.132812 25.632812 20.132812 25.476562 C 20.132812 25.414062 20.140625 25.394531 20.175781 25.355469 C 20.21875 25.308594 20.28125 25.277344 20.328125 25.285156 C 20.339844 25.285156 20.359375 25.289062 20.375 25.289062 Z M 29.058594 25.714844 C 29.1875 25.792969 29.1875 25.949219 29.0625 26.042969 C 29.015625 26.078125 28.910156 26.078125 28.859375 26.046875 C 28.777344 25.992188 28.746094 25.871094 28.789062 25.785156 C 28.839844 25.695312 28.96875 25.65625 29.058594 25.714844 Z M 30.199219 25.734375 C 30.257812 25.769531 30.296875 25.835938 30.296875 25.914062 C 30.296875 26.039062 30.179688 26.128906 30.0625 26.097656 C 29.902344 26.054688 29.863281 25.828125 30.007812 25.742188 C 30.0625 25.707031 30.140625 25.707031 30.199219 25.734375 Z M 20.886719 25.851562 C 20.960938 25.890625 20.992188 25.941406 20.992188 26.023438 C 20.992188 26.226562 20.742188 26.296875 20.632812 26.121094 C 20.59375 26.054688 20.605469 25.953125 20.660156 25.894531 C 20.726562 25.824219 20.800781 25.808594 20.886719 25.851562 Z M 19.792969 25.945312 C 19.84375 26.003906 19.859375 26.046875 19.847656 26.117188 C 19.832031 26.183594 19.792969 26.234375 19.71875 26.261719 C 19.660156 26.285156 19.652344 26.285156 19.59375 26.261719 C 19.5 26.222656 19.441406 26.125 19.464844 26.035156 C 19.476562 25.992188 19.539062 25.914062 19.578125 25.898438 C 19.59375 25.890625 19.636719 25.886719 19.675781 25.890625 C 19.734375 25.894531 19.753906 25.902344 19.792969 25.945312 Z M 28.609375 26.28125 C 28.6875 26.355469 28.707031 26.449219 28.65625 26.53125 C 28.605469 26.621094 28.503906 26.65625 28.414062 26.613281 C 28.269531 26.542969 28.257812 26.359375 28.390625 26.269531 C 28.457031 26.226562 28.558594 26.230469 28.609375 26.28125 Z M 29.71875 26.292969 C 29.894531 26.382812 29.851562 26.632812 29.65625 26.65625 C 29.621094 26.660156 29.585938 26.65625 29.554688 26.640625 C 29.417969 26.566406 29.410156 26.386719 29.539062 26.300781 C 29.597656 26.261719 29.65625 26.257812 29.71875 26.292969 Z M 30.863281 26.316406 C 30.957031 26.355469 31.003906 26.488281 30.957031 26.578125 C 30.882812 26.71875 30.699219 26.726562 30.617188 26.589844 C 30.5625 26.496094 30.601562 26.371094 30.703125 26.320312 C 30.761719 26.289062 30.800781 26.289062 30.863281 26.316406 Z M 21.382812 26.402344 C 21.546875 26.488281 21.472656 26.761719 21.289062 26.761719 C 21.140625 26.761719 21.050781 26.625 21.109375 26.488281 C 21.15625 26.378906 21.265625 26.34375 21.382812 26.402344 Z M 20.207031 26.441406 C 20.28125 26.476562 20.316406 26.527344 20.324219 26.609375 C 20.332031 26.699219 20.296875 26.761719 20.226562 26.796875 C 20.089844 26.863281 19.949219 26.773438 19.945312 26.621094 C 19.945312 26.546875 19.988281 26.484375 20.054688 26.449219 C 20.121094 26.417969 20.144531 26.414062 20.207031 26.441406 Z M 19.082031 26.507812 C 19.144531 26.539062 19.183594 26.605469 19.183594 26.675781 C 19.183594 26.78125 19.09375 26.875 18.992188 26.875 C 18.839844 26.875 18.742188 26.679688 18.839844 26.5625 C 18.910156 26.480469 18.996094 26.460938 19.082031 26.507812 Z M 28.109375 26.816406 C 28.246094 26.886719 28.246094 27.089844 28.113281 27.160156 C 27.980469 27.234375 27.832031 27.140625 27.832031 26.984375 C 27.832031 26.910156 27.878906 26.839844 27.949219 26.8125 C 28.011719 26.785156 28.050781 26.785156 28.109375 26.816406 Z M 29.234375 26.839844 C 29.261719 26.847656 29.300781 26.878906 29.320312 26.902344 C 29.394531 26.992188 29.359375 27.152344 29.253906 27.195312 C 29.113281 27.253906 28.980469 27.167969 28.980469 27.015625 C 28.980469 26.941406 29.015625 26.882812 29.085938 26.847656 C 29.152344 26.8125 29.175781 26.8125 29.234375 26.839844 Z M 30.417969 26.882812 C 30.5 26.9375 30.53125 27.066406 30.476562 27.152344 C 30.378906 27.316406 30.125 27.242188 30.125 27.054688 C 30.125 26.898438 30.292969 26.800781 30.417969 26.882812 Z M 31.539062 26.902344 C 31.640625 26.949219 31.679688 27.0625 31.632812 27.167969 C 31.574219 27.292969 31.394531 27.308594 31.304688 27.191406 C 31.210938 27.070312 31.300781 26.886719 31.464844 26.878906 C 31.472656 26.878906 31.503906 26.886719 31.539062 26.902344 Z M 21.855469 26.941406 C 21.914062 26.96875 21.953125 27.039062 21.953125 27.113281 C 21.953125 27.195312 21.917969 27.253906 21.84375 27.289062 C 21.761719 27.328125 21.695312 27.316406 21.628906 27.242188 C 21.578125 27.195312 21.574219 27.183594 21.574219 27.121094 C 21.574219 27.078125 21.582031 27.035156 21.601562 27.007812 C 21.648438 26.929688 21.769531 26.894531 21.855469 26.941406 Z M 20.707031 26.996094 C 20.800781 27.046875 20.839844 27.152344 20.792969 27.246094 C 20.757812 27.320312 20.695312 27.363281 20.613281 27.363281 C 20.425781 27.363281 20.355469 27.109375 20.515625 27.003906 C 20.566406 26.96875 20.648438 26.964844 20.707031 26.996094 Z M 19.574219 27.054688 C 19.621094 27.082031 19.671875 27.167969 19.671875 27.222656 C 19.671875 27.328125 19.582031 27.414062 19.472656 27.414062 C 19.273438 27.414062 19.207031 27.160156 19.375 27.054688 C 19.421875 27.023438 19.523438 27.027344 19.574219 27.054688 Z M 18.40625 27.101562 C 18.597656 27.191406 18.535156 27.46875 18.320312 27.46875 C 18.203125 27.46875 18.109375 27.347656 18.144531 27.230469 C 18.160156 27.164062 18.21875 27.105469 18.277344 27.089844 C 18.335938 27.070312 18.339844 27.070312 18.40625 27.101562 Z M 27.65625 27.382812 C 27.734375 27.429688 27.769531 27.542969 27.726562 27.625 C 27.6875 27.703125 27.640625 27.734375 27.550781 27.734375 C 27.472656 27.734375 27.460938 27.730469 27.417969 27.679688 C 27.363281 27.621094 27.347656 27.574219 27.363281 27.507812 C 27.375 27.445312 27.421875 27.386719 27.488281 27.363281 C 27.550781 27.34375 27.59375 27.347656 27.65625 27.382812 Z M 28.804688 27.414062 C 28.851562 27.441406 28.894531 27.527344 28.894531 27.578125 C 28.894531 27.625 28.839844 27.71875 28.800781 27.742188 C 28.707031 27.800781 28.570312 27.757812 28.527344 27.664062 C 28.5 27.601562 28.5 27.550781 28.527344 27.488281 C 28.574219 27.390625 28.707031 27.355469 28.804688 27.414062 Z M 29.964844 27.457031 C 30.0625 27.542969 30.0625 27.664062 29.96875 27.753906 C 29.847656 27.859375 29.652344 27.769531 29.652344 27.609375 C 29.652344 27.492188 29.734375 27.414062 29.851562 27.414062 C 29.902344 27.414062 29.925781 27.421875 29.964844 27.457031 Z M 31.078125 27.460938 C 31.132812 27.492188 31.164062 27.53125 31.179688 27.589844 C 31.195312 27.664062 31.171875 27.730469 31.113281 27.78125 C 31.074219 27.816406 31.054688 27.824219 30.992188 27.824219 C 30.875 27.824219 30.800781 27.746094 30.800781 27.632812 C 30.800781 27.492188 30.953125 27.398438 31.078125 27.460938 Z M 22.347656 27.496094 C 22.398438 27.523438 22.441406 27.601562 22.441406 27.660156 C 22.441406 27.746094 22.363281 27.835938 22.277344 27.847656 C 22.199219 27.859375 22.160156 27.847656 22.105469 27.792969 C 22.058594 27.742188 22.039062 27.671875 22.0625 27.597656 C 22.082031 27.535156 22.113281 27.503906 22.1875 27.476562 C 22.246094 27.457031 22.289062 27.460938 22.347656 27.496094 Z M 32.230469 27.492188 C 32.289062 27.523438 32.324219 27.59375 32.324219 27.671875 C 32.324219 27.726562 32.316406 27.746094 32.28125 27.789062 C 32.203125 27.882812 32.074219 27.882812 31.992188 27.789062 C 31.914062 27.703125 31.9375 27.558594 32.035156 27.5 C 32.089844 27.464844 32.171875 27.460938 32.230469 27.492188 Z M 21.207031 27.546875 C 21.332031 27.632812 21.316406 27.816406 21.179688 27.890625 C 21.054688 27.957031 20.886719 27.835938 20.910156 27.691406 C 20.921875 27.617188 20.953125 27.570312 21.019531 27.539062 C 21.085938 27.507812 21.152344 27.511719 21.207031 27.546875 Z M 20.03125 27.589844 C 20.054688 27.601562 20.089844 27.628906 20.109375 27.65625 C 20.179688 27.738281 20.144531 27.886719 20.046875 27.941406 C 19.917969 28.011719 19.765625 27.914062 19.765625 27.769531 C 19.765625 27.625 19.914062 27.527344 20.03125 27.589844 Z M 18.894531 27.648438 C 19.039062 27.71875 19.03125 27.933594 18.886719 28 C 18.808594 28.035156 18.742188 28.019531 18.671875 27.953125 C 18.625 27.90625 18.621094 27.890625 18.621094 27.832031 C 18.621094 27.671875 18.757812 27.582031 18.894531 27.648438 Z M 17.761719 27.710938 C 17.855469 27.769531 17.882812 27.863281 17.835938 27.960938 C 17.8125 28.011719 17.789062 28.03125 17.742188 28.054688 C 17.570312 28.128906 17.410156 27.949219 17.496094 27.785156 C 17.546875 27.691406 17.671875 27.65625 17.761719 27.710938 Z M 27.175781 27.929688 C 27.234375 27.964844 27.273438 28.03125 27.273438 28.113281 C 27.273438 28.175781 27.265625 28.1875 27.21875 28.238281 C 27.167969 28.289062 27.15625 28.292969 27.082031 28.292969 C 27.007812 28.292969 27 28.289062 26.949219 28.238281 C 26.898438 28.1875 26.894531 28.175781 26.894531 28.113281 C 26.894531 28.027344 26.917969 27.984375 26.976562 27.941406 C 27.03125 27.902344 27.113281 27.898438 27.175781 27.929688 Z M 28.324219 27.960938 C 28.414062 28.007812 28.449219 28.140625 28.390625 28.230469 C 28.316406 28.359375 28.160156 28.359375 28.066406 28.230469 C 28.03125 28.1875 28.03125 28.078125 28.0625 28.027344 C 28.117188 27.945312 28.238281 27.914062 28.324219 27.960938 Z M 29.476562 27.996094 C 29.5625 28.046875 29.59375 28.171875 29.539062 28.257812 C 29.484375 28.351562 29.394531 28.378906 29.296875 28.335938 C 29.1875 28.289062 29.148438 28.152344 29.210938 28.054688 C 29.265625 27.96875 29.394531 27.941406 29.476562 27.996094 Z M 30.640625 28.039062 C 30.714844 28.109375 30.734375 28.179688 30.695312 28.269531 C 30.667969 28.339844 30.597656 28.382812 30.519531 28.382812 C 30.320312 28.382812 30.253906 28.128906 30.425781 28.019531 C 30.488281 27.984375 30.589844 27.992188 30.640625 28.039062 Z M 22.8125 28.03125 C 22.96875 28.105469 22.941406 28.34375 22.773438 28.394531 C 22.660156 28.425781 22.535156 28.332031 22.535156 28.207031 C 22.535156 28.058594 22.679688 27.964844 22.8125 28.03125 Z M 31.765625 28.054688 C 31.832031 28.097656 31.867188 28.171875 31.859375 28.242188 C 31.835938 28.4375 31.585938 28.480469 31.496094 28.304688 C 31.464844 28.242188 31.464844 28.183594 31.5 28.125 C 31.558594 28.027344 31.679688 27.996094 31.765625 28.054688 Z M 32.898438 28.074219 C 32.988281 28.117188 33.027344 28.222656 32.988281 28.320312 C 32.929688 28.46875 32.742188 28.488281 32.652344 28.351562 C 32.546875 28.191406 32.730469 27.984375 32.898438 28.074219 Z M 21.671875 28.085938 C 21.734375 28.117188 21.769531 28.1875 21.769531 28.265625 C 21.769531 28.386719 21.652344 28.480469 21.53125 28.449219 C 21.375 28.40625 21.339844 28.179688 21.480469 28.09375 C 21.535156 28.058594 21.617188 28.058594 21.671875 28.085938 Z M 20.566406 28.171875 C 20.65625 28.257812 20.652344 28.375 20.558594 28.460938 C 20.4375 28.566406 20.242188 28.476562 20.242188 28.316406 C 20.242188 28.195312 20.328125 28.117188 20.453125 28.125 C 20.507812 28.128906 20.535156 28.140625 20.566406 28.171875 Z M 19.410156 28.210938 C 19.449219 28.238281 19.488281 28.316406 19.488281 28.371094 C 19.488281 28.425781 19.433594 28.515625 19.382812 28.539062 C 19.28125 28.585938 19.171875 28.554688 19.121094 28.457031 C 19.027344 28.273438 19.234375 28.09375 19.410156 28.210938 Z M 18.253906 28.257812 C 18.355469 28.324219 18.367188 28.46875 18.28125 28.554688 C 18.183594 28.652344 18.035156 28.628906 17.972656 28.503906 C 17.886719 28.335938 18.09375 28.152344 18.253906 28.257812 Z M 17.070312 28.296875 C 17.144531 28.328125 17.179688 28.382812 17.1875 28.460938 C 17.195312 28.515625 17.1875 28.539062 17.164062 28.578125 C 17.089844 28.707031 16.898438 28.699219 16.832031 28.570312 C 16.78125 28.472656 16.816406 28.355469 16.910156 28.304688 C 16.96875 28.273438 17.007812 28.269531 17.070312 28.296875 Z M 27.855469 28.519531 C 27.921875 28.558594 27.949219 28.609375 27.949219 28.6875 C 27.949219 28.890625 27.699219 28.957031 27.59375 28.78125 C 27.535156 28.691406 27.585938 28.546875 27.683594 28.503906 C 27.734375 28.484375 27.808594 28.488281 27.855469 28.519531 Z M 29.019531 28.558594 C 29.042969 28.578125 29.074219 28.617188 29.085938 28.652344 C 29.109375 28.714844 29.109375 28.71875 29.085938 28.78125 C 29.03125 28.925781 28.867188 28.957031 28.757812 28.839844 C 28.722656 28.804688 28.703125 28.714844 28.71875 28.65625 C 28.726562 28.617188 28.789062 28.550781 28.832031 28.53125 C 28.878906 28.511719 28.972656 28.527344 29.019531 28.558594 Z M 30.136719 28.570312 C 30.273438 28.636719 30.273438 28.855469 30.136719 28.917969 C 30.074219 28.949219 30.027344 28.949219 29.960938 28.917969 C 29.898438 28.882812 29.863281 28.820312 29.863281 28.746094 C 29.863281 28.597656 30.003906 28.503906 30.136719 28.570312 Z M 31.265625 28.59375 C 31.339844 28.625 31.375 28.679688 31.386719 28.757812 C 31.390625 28.8125 31.386719 28.839844 31.363281 28.875 C 31.285156 29 31.09375 29 31.03125 28.871094 C 30.976562 28.769531 31.015625 28.648438 31.113281 28.601562 C 31.183594 28.570312 31.207031 28.570312 31.265625 28.59375 Z M 22.175781 28.644531 C 22.289062 28.726562 22.28125 28.894531 22.15625 28.972656 C 22.027344 29.050781 21.855469 28.941406 21.871094 28.789062 C 21.890625 28.632812 22.054688 28.554688 22.175781 28.644531 Z M 32.449219 28.640625 C 32.566406 28.71875 32.5625 28.90625 32.4375 28.972656 C 32.269531 29.066406 32.09375 28.898438 32.171875 28.722656 C 32.21875 28.617188 32.351562 28.574219 32.449219 28.640625 Z M 33.566406 28.660156 C 33.636719 28.691406 33.683594 28.757812 33.683594 28.828125 C 33.683594 28.984375 33.511719 29.082031 33.386719 28.996094 C 33.257812 28.90625 33.269531 28.722656 33.410156 28.660156 C 33.480469 28.625 33.496094 28.625 33.566406 28.660156 Z M 21.023438 28.695312 C 21.148438 28.777344 21.136719 28.960938 21 29.03125 C 20.871094 29.101562 20.707031 28.984375 20.726562 28.839844 C 20.742188 28.695312 20.902344 28.617188 21.023438 28.695312 Z M 19.859375 28.738281 C 19.933594 28.773438 19.96875 28.84375 19.960938 28.933594 C 19.953125 28.992188 19.945312 29.011719 19.902344 29.050781 C 19.800781 29.148438 19.660156 29.121094 19.601562 28.992188 C 19.519531 28.828125 19.691406 28.660156 19.859375 28.738281 Z M 18.71875 28.792969 C 18.78125 28.828125 18.816406 28.894531 18.816406 28.972656 C 18.816406 29.027344 18.808594 29.050781 18.773438 29.089844 C 18.6875 29.191406 18.566406 29.191406 18.480469 29.09375 C 18.40625 29.003906 18.429688 28.859375 18.527344 28.800781 C 18.582031 28.765625 18.660156 28.765625 18.71875 28.792969 Z M 17.613281 28.878906 C 17.777344 29.039062 17.589844 29.296875 17.382812 29.1875 C 17.261719 29.125 17.257812 28.933594 17.378906 28.855469 C 17.445312 28.8125 17.554688 28.824219 17.613281 28.878906 Z M 16.4375 28.90625 C 16.480469 28.933594 16.535156 29.023438 16.535156 29.078125 C 16.535156 29.128906 16.5 29.1875 16.449219 29.230469 C 16.335938 29.328125 16.140625 29.230469 16.140625 29.078125 C 16.140625 29.019531 16.183594 28.941406 16.230469 28.914062 C 16.285156 28.878906 16.378906 28.878906 16.4375 28.90625 Z M 28.542969 29.105469 C 28.589844 29.136719 28.628906 29.210938 28.628906 29.265625 C 28.628906 29.390625 28.503906 29.492188 28.386719 29.460938 C 28.296875 29.4375 28.226562 29.328125 28.242188 29.230469 C 28.253906 29.175781 28.332031 29.089844 28.378906 29.082031 C 28.429688 29.070312 28.503906 29.082031 28.542969 29.105469 Z M 29.652344 29.121094 C 29.800781 29.183594 29.816406 29.371094 29.679688 29.464844 C 29.640625 29.492188 29.617188 29.496094 29.5625 29.492188 C 29.503906 29.484375 29.484375 29.476562 29.445312 29.433594 C 29.394531 29.375 29.378906 29.332031 29.390625 29.261719 C 29.402344 29.207031 29.480469 29.117188 29.527344 29.109375 C 29.585938 29.097656 29.59375 29.097656 29.652344 29.121094 Z M 30.8125 29.15625 C 30.859375 29.175781 30.878906 29.195312 30.898438 29.25 C 30.9375 29.332031 30.925781 29.394531 30.863281 29.460938 C 30.777344 29.558594 30.613281 29.535156 30.554688 29.417969 C 30.519531 29.335938 30.535156 29.234375 30.59375 29.183594 C 30.617188 29.167969 30.710938 29.128906 30.738281 29.128906 C 30.746094 29.128906 30.777344 29.140625 30.8125 29.15625 Z M 31.996094 29.214844 C 32.125 29.328125 32.066406 29.53125 31.894531 29.550781 C 31.773438 29.558594 31.683594 29.480469 31.683594 29.363281 C 31.683594 29.25 31.761719 29.167969 31.878906 29.167969 C 31.933594 29.167969 31.957031 29.179688 31.996094 29.214844 Z M 33.160156 29.257812 C 33.203125 29.304688 33.207031 29.320312 33.207031 29.390625 C 33.207031 29.464844 33.203125 29.472656 33.152344 29.523438 C 33.105469 29.574219 33.09375 29.582031 33.035156 29.582031 C 32.914062 29.582031 32.828125 29.503906 32.828125 29.390625 C 32.828125 29.269531 32.914062 29.191406 33.039062 29.203125 C 33.105469 29.207031 33.121094 29.214844 33.160156 29.257812 Z M 21.5 29.242188 C 21.5625 29.28125 21.59375 29.34375 21.582031 29.429688 C 21.578125 29.488281 21.570312 29.507812 21.527344 29.546875 C 21.484375 29.589844 21.464844 29.59375 21.402344 29.59375 C 21.347656 29.59375 21.316406 29.585938 21.289062 29.566406 C 21.140625 29.445312 21.214844 29.210938 21.398438 29.210938 C 21.429688 29.210938 21.472656 29.226562 21.5 29.242188 Z M 34.269531 29.253906 C 34.332031 29.292969 34.359375 29.355469 34.351562 29.441406 C 34.335938 29.609375 34.140625 29.671875 34.023438 29.546875 C 33.914062 29.425781 34 29.226562 34.167969 29.226562 C 34.199219 29.226562 34.242188 29.238281 34.269531 29.253906 Z M 20.355469 29.296875 C 20.445312 29.359375 20.472656 29.476562 20.421875 29.558594 C 20.34375 29.679688 20.160156 29.679688 20.089844 29.5625 C 19.984375 29.386719 20.195312 29.179688 20.355469 29.296875 Z M 19.222656 29.355469 C 19.378906 29.46875 19.285156 29.71875 19.09375 29.703125 C 18.921875 29.6875 18.855469 29.480469 18.980469 29.363281 C 19.042969 29.308594 19.152344 29.304688 19.222656 29.355469 Z M 18.070312 29.402344 C 18.152344 29.460938 18.183594 29.574219 18.128906 29.664062 C 18.046875 29.800781 17.863281 29.792969 17.789062 29.652344 C 17.703125 29.480469 17.910156 29.296875 18.070312 29.402344 Z M 16.929688 29.460938 C 17.050781 29.546875 17.03125 29.730469 16.894531 29.800781 C 16.804688 29.847656 16.6875 29.800781 16.644531 29.699219 C 16.613281 29.628906 16.617188 29.585938 16.660156 29.511719 C 16.710938 29.425781 16.847656 29.402344 16.929688 29.460938 Z M 15.765625 29.503906 C 15.824219 29.535156 15.863281 29.601562 15.863281 29.683594 C 15.863281 29.734375 15.855469 29.757812 15.820312 29.796875 C 15.734375 29.898438 15.613281 29.898438 15.527344 29.800781 C 15.453125 29.714844 15.472656 29.570312 15.570312 29.507812 C 15.625 29.476562 15.707031 29.472656 15.765625 29.503906 Z M 29.207031 29.6875 C 29.335938 29.753906 29.332031 29.960938 29.203125 30.027344 C 29.171875 30.042969 29.136719 30.050781 29.085938 30.042969 C 29.027344 30.039062 29.007812 30.027344 28.96875 29.984375 C 28.929688 29.941406 28.925781 29.925781 28.925781 29.859375 C 28.925781 29.8125 28.933594 29.773438 28.945312 29.75 C 29.003906 29.671875 29.121094 29.644531 29.207031 29.6875 Z M 30.351562 29.714844 C 30.410156 29.746094 30.449219 29.816406 30.449219 29.882812 C 30.449219 29.996094 30.367188 30.074219 30.25 30.074219 C 30.128906 30.074219 30.039062 29.953125 30.070312 29.835938 C 30.085938 29.78125 30.132812 29.726562 30.175781 29.707031 C 30.222656 29.6875 30.308594 29.691406 30.351562 29.714844 Z M 31.507812 29.75 C 31.589844 29.800781 31.621094 29.917969 31.578125 30.003906 C 31.527344 30.101562 31.40625 30.136719 31.308594 30.085938 C 31.246094 30.054688 31.199219 29.953125 31.210938 29.882812 C 31.222656 29.828125 31.28125 29.753906 31.324219 29.734375 C 31.375 29.714844 31.460938 29.71875 31.507812 29.75 Z M 32.671875 29.792969 C 32.75 29.871094 32.765625 29.972656 32.710938 30.054688 C 32.675781 30.109375 32.578125 30.152344 32.511719 30.136719 C 32.449219 30.125 32.371094 30.050781 32.359375 29.984375 C 32.34375 29.898438 32.402344 29.792969 32.480469 29.761719 C 32.527344 29.742188 32.632812 29.761719 32.671875 29.792969 Z M 33.796875 29.8125 C 33.933594 29.902344 33.917969 30.085938 33.769531 30.152344 C 33.695312 30.1875 33.625 30.171875 33.5625 30.113281 C 33.488281 30.035156 33.484375 29.933594 33.554688 29.847656 C 33.617188 29.769531 33.714844 29.757812 33.796875 29.8125 Z M 20.828125 29.835938 C 20.988281 29.933594 20.945312 30.167969 20.757812 30.199219 C 20.699219 30.210938 20.617188 30.171875 20.578125 30.117188 C 20.460938 29.949219 20.65625 29.730469 20.828125 29.835938 Z M 34.921875 29.828125 C 35.015625 29.867188 35.058594 29.976562 35.019531 30.074219 C 34.960938 30.226562 34.773438 30.242188 34.679688 30.105469 C 34.652344 30.066406 34.648438 30.042969 34.652344 29.988281 C 34.660156 29.914062 34.6875 29.875 34.753906 29.832031 C 34.804688 29.800781 34.859375 29.800781 34.921875 29.828125 Z M 19.691406 29.890625 C 19.78125 29.953125 19.808594 30.066406 19.753906 30.15625 C 19.699219 30.25 19.605469 30.277344 19.507812 30.230469 C 19.402344 30.179688 19.363281 30.050781 19.429688 29.953125 C 19.476562 29.871094 19.609375 29.839844 19.691406 29.890625 Z M 18.539062 29.941406 C 18.65625 30.003906 18.667969 30.183594 18.554688 30.273438 C 18.527344 30.296875 18.5 30.300781 18.441406 30.300781 C 18.371094 30.300781 18.359375 30.296875 18.3125 30.246094 C 18.261719 30.199219 18.257812 30.183594 18.257812 30.125 C 18.257812 30.089844 18.265625 30.042969 18.277344 30.019531 C 18.320312 29.929688 18.445312 29.894531 18.539062 29.941406 Z M 17.429688 30.027344 C 17.550781 30.144531 17.484375 30.339844 17.320312 30.355469 C 17.238281 30.363281 17.171875 30.335938 17.136719 30.269531 C 17.105469 30.214844 17.097656 30.132812 17.128906 30.078125 C 17.1875 29.964844 17.339844 29.9375 17.429688 30.027344 Z M 16.238281 30.046875 C 16.285156 30.070312 16.304688 30.089844 16.324219 30.140625 C 16.363281 30.222656 16.351562 30.285156 16.292969 30.355469 C 16.203125 30.449219 16.046875 30.429688 15.988281 30.316406 C 15.972656 30.285156 15.960938 30.246094 15.960938 30.222656 C 15.960938 30.121094 16.046875 30.027344 16.15625 30.019531 C 16.167969 30.019531 16.203125 30.03125 16.238281 30.046875 Z M 15.113281 30.109375 C 15.199219 30.167969 15.226562 30.285156 15.175781 30.371094 C 15.09375 30.507812 14.910156 30.503906 14.835938 30.359375 C 14.75 30.1875 14.953125 30.003906 15.113281 30.109375 Z M 29.886719 30.273438 C 29.976562 30.328125 30.003906 30.421875 29.960938 30.523438 C 29.9375 30.574219 29.921875 30.59375 29.867188 30.617188 C 29.765625 30.664062 29.667969 30.625 29.617188 30.527344 C 29.53125 30.359375 29.726562 30.175781 29.886719 30.273438 Z M 31.023438 30.300781 C 31.164062 30.375 31.160156 30.574219 31.019531 30.644531 C 30.941406 30.683594 30.871094 30.671875 30.804688 30.609375 C 30.710938 30.519531 30.730469 30.355469 30.847656 30.296875 C 30.90625 30.265625 30.964844 30.269531 31.023438 30.300781 Z M 32.167969 30.328125 C 32.304688 30.398438 32.304688 30.609375 32.167969 30.675781 C 32.105469 30.703125 32.054688 30.703125 31.996094 30.675781 C 31.859375 30.609375 31.859375 30.394531 31.996094 30.324219 C 32.054688 30.296875 32.105469 30.296875 32.167969 30.328125 Z M 33.296875 30.351562 C 33.367188 30.382812 33.40625 30.433594 33.414062 30.511719 C 33.417969 30.570312 33.414062 30.59375 33.390625 30.632812 C 33.335938 30.722656 33.207031 30.753906 33.117188 30.691406 C 33.066406 30.660156 33.023438 30.554688 33.03125 30.503906 C 33.046875 30.441406 33.089844 30.378906 33.140625 30.355469 C 33.199219 30.328125 33.238281 30.324219 33.296875 30.351562 Z M 34.476562 30.394531 C 34.589844 30.46875 34.59375 30.640625 34.484375 30.71875 C 34.429688 30.757812 34.332031 30.765625 34.277344 30.730469 C 34.183594 30.667969 34.15625 30.570312 34.203125 30.472656 C 34.261719 30.363281 34.378906 30.332031 34.476562 30.394531 Z M 35.613281 30.417969 C 35.703125 30.464844 35.738281 30.589844 35.6875 30.683594 C 35.59375 30.847656 35.355469 30.800781 35.328125 30.609375 C 35.3125 30.523438 35.382812 30.421875 35.46875 30.398438 C 35.503906 30.386719 35.570312 30.398438 35.613281 30.417969 Z M 20.144531 30.425781 C 20.292969 30.484375 20.304688 30.703125 20.160156 30.777344 C 20.035156 30.84375 19.878906 30.746094 19.878906 30.605469 C 19.878906 30.535156 19.925781 30.460938 19.992188 30.425781 C 20.050781 30.394531 20.074219 30.394531 20.144531 30.425781 Z M 19.03125 30.492188 C 19.152344 30.570312 19.148438 30.742188 19.027344 30.820312 C 18.9375 30.882812 18.820312 30.851562 18.761719 30.753906 C 18.65625 30.582031 18.867188 30.382812 19.03125 30.492188 Z M 17.875 30.542969 C 17.972656 30.605469 18.003906 30.722656 17.945312 30.8125 C 17.863281 30.933594 17.695312 30.9375 17.617188 30.820312 C 17.511719 30.652344 17.707031 30.441406 17.875 30.542969 Z M 16.722656 30.59375 C 16.847656 30.652344 16.863281 30.832031 16.75 30.925781 C 16.65625 31 16.511719 30.960938 16.460938 30.84375 C 16.386719 30.675781 16.554688 30.511719 16.722656 30.59375 Z M 15.59375 30.65625 C 15.65625 30.695312 15.683594 30.757812 15.675781 30.847656 C 15.671875 30.902344 15.660156 30.925781 15.617188 30.964844 C 15.574219 31.003906 15.558594 31.011719 15.488281 31.011719 C 15.417969 31.011719 15.40625 31.007812 15.355469 30.957031 C 15.308594 30.90625 15.300781 30.894531 15.300781 30.835938 C 15.300781 30.710938 15.378906 30.628906 15.492188 30.628906 C 15.523438 30.628906 15.566406 30.640625 15.59375 30.65625 Z M 14.476562 30.734375 C 14.558594 30.816406 14.558594 30.941406 14.46875 31.019531 C 14.351562 31.128906 14.152344 31.042969 14.152344 30.878906 C 14.152344 30.785156 14.199219 30.722656 14.289062 30.691406 C 14.355469 30.667969 14.425781 30.683594 14.476562 30.734375 Z M 30.574219 30.863281 C 30.621094 30.898438 30.660156 30.976562 30.660156 31.03125 C 30.660156 31.125 30.558594 31.222656 30.460938 31.222656 C 30.359375 31.222656 30.257812 31.113281 30.273438 31.007812 C 30.289062 30.859375 30.460938 30.78125 30.574219 30.863281 Z M 31.726562 30.898438 C 31.882812 31.011719 31.785156 31.265625 31.59375 31.246094 C 31.535156 31.242188 31.515625 31.234375 31.476562 31.191406 C 31.421875 31.128906 31.410156 31.085938 31.421875 31.015625 C 31.433594 30.957031 31.507812 30.875 31.558594 30.863281 C 31.609375 30.851562 31.683594 30.867188 31.726562 30.898438 Z M 32.839844 30.910156 C 32.949219 30.960938 32.984375 31.105469 32.914062 31.199219 C 32.824219 31.316406 32.644531 31.300781 32.585938 31.175781 C 32.53125 31.0625 32.585938 30.929688 32.699219 30.898438 C 32.757812 30.878906 32.777344 30.882812 32.839844 30.910156 Z M 34.035156 30.976562 C 34.164062 31.101562 34.074219 31.308594 33.902344 31.308594 C 33.796875 31.308594 33.710938 31.222656 33.710938 31.121094 C 33.710938 31.019531 33.769531 30.949219 33.859375 30.929688 C 33.929688 30.914062 33.988281 30.929688 34.035156 30.976562 Z M 35.195312 31.019531 C 35.246094 31.078125 35.253906 31.175781 35.210938 31.246094 C 35.113281 31.410156 34.859375 31.335938 34.859375 31.148438 C 34.859375 30.964844 35.074219 30.882812 35.195312 31.019531 Z M 36.289062 31.003906 C 36.34375 31.03125 36.386719 31.105469 36.386719 31.171875 C 36.386719 31.285156 36.304688 31.363281 36.183594 31.363281 C 36.066406 31.363281 35.980469 31.25 36.007812 31.128906 C 36.019531 31.074219 36.066406 31.015625 36.113281 30.996094 C 36.160156 30.976562 36.246094 30.980469 36.289062 31.003906 Z M 19.503906 31.03125 C 19.632812 31.101562 19.628906 31.304688 19.5 31.371094 C 19.3125 31.46875 19.125 31.242188 19.261719 31.078125 C 19.28125 31.054688 19.308594 31.03125 19.324219 31.023438 C 19.375 31.003906 19.457031 31.007812 19.503906 31.03125 Z M 18.382812 31.105469 C 18.484375 31.183594 18.472656 31.367188 18.355469 31.429688 C 18.261719 31.476562 18.140625 31.441406 18.09375 31.347656 C 18.078125 31.316406 18.074219 31.28125 18.078125 31.234375 C 18.09375 31.078125 18.257812 31.011719 18.382812 31.105469 Z M 17.199219 31.136719 C 17.34375 31.207031 17.347656 31.410156 17.207031 31.484375 C 17.082031 31.550781 16.925781 31.457031 16.925781 31.316406 C 16.925781 31.226562 16.980469 31.148438 17.058594 31.125 C 17.121094 31.105469 17.136719 31.105469 17.199219 31.136719 Z M 16.082031 31.207031 C 16.199219 31.289062 16.191406 31.460938 16.066406 31.535156 C 15.902344 31.636719 15.703125 31.425781 15.808594 31.265625 C 15.875 31.167969 15.992188 31.140625 16.082031 31.207031 Z M 14.921875 31.25 C 15.019531 31.3125 15.050781 31.433594 14.988281 31.523438 C 14.949219 31.585938 14.875 31.621094 14.804688 31.613281 C 14.613281 31.589844 14.570312 31.335938 14.742188 31.25 C 14.804688 31.214844 14.863281 31.214844 14.921875 31.25 Z M 13.769531 31.300781 C 13.867188 31.347656 13.902344 31.480469 13.847656 31.574219 C 13.792969 31.664062 13.699219 31.691406 13.601562 31.648438 C 13.550781 31.625 13.53125 31.609375 13.507812 31.554688 C 13.433594 31.382812 13.597656 31.21875 13.769531 31.300781 Z M 31.246094 31.449219 C 31.292969 31.472656 31.332031 31.546875 31.332031 31.613281 C 31.332031 31.800781 31.097656 31.871094 30.984375 31.722656 C 30.960938 31.695312 30.953125 31.667969 30.953125 31.609375 C 30.953125 31.542969 30.960938 31.527344 31 31.484375 C 31.066406 31.410156 31.152344 31.398438 31.246094 31.449219 Z M 32.390625 31.476562 C 32.511719 31.550781 32.507812 31.746094 32.382812 31.808594 C 32.359375 31.820312 32.3125 31.832031 32.277344 31.832031 C 32.226562 31.832031 32.207031 31.824219 32.164062 31.789062 C 32.070312 31.703125 32.070312 31.578125 32.167969 31.492188 C 32.207031 31.457031 32.226562 31.449219 32.28125 31.449219 C 32.320312 31.449219 32.363281 31.460938 32.390625 31.476562 Z M 33.535156 31.507812 C 33.660156 31.582031 33.652344 31.773438 33.527344 31.839844 C 33.386719 31.914062 33.214844 31.792969 33.242188 31.636719 C 33.253906 31.585938 33.308594 31.507812 33.355469 31.492188 C 33.40625 31.46875 33.492188 31.476562 33.535156 31.507812 Z M 34.714844 31.566406 C 34.742188 31.59375 34.765625 31.636719 34.769531 31.65625 C 34.804688 31.792969 34.667969 31.925781 34.527344 31.886719 C 34.433594 31.859375 34.367188 31.75 34.390625 31.65625 C 34.402344 31.613281 34.464844 31.535156 34.5 31.519531 C 34.519531 31.511719 34.5625 31.507812 34.597656 31.511719 C 34.660156 31.515625 34.675781 31.523438 34.714844 31.566406 Z M 35.8125 31.554688 C 35.910156 31.605469 35.945312 31.707031 35.898438 31.808594 C 35.816406 31.996094 35.53125 31.9375 35.53125 31.734375 C 35.53125 31.585938 35.6875 31.488281 35.8125 31.554688 Z M 36.953125 31.582031 C 37.003906 31.605469 37.050781 31.664062 37.0625 31.726562 C 37.078125 31.785156 37.039062 31.878906 36.988281 31.917969 C 36.820312 32.035156 36.609375 31.847656 36.707031 31.664062 C 36.75 31.574219 36.855469 31.542969 36.953125 31.582031 Z M 18.84375 31.636719 C 18.976562 31.726562 18.964844 31.910156 18.820312 31.980469 C 18.734375 32.023438 18.632812 31.988281 18.578125 31.898438 C 18.476562 31.730469 18.683594 31.527344 18.84375 31.636719 Z M 17.71875 31.707031 C 17.792969 31.773438 17.8125 31.847656 17.773438 31.9375 C 17.710938 32.085938 17.496094 32.089844 17.425781 31.9375 C 17.382812 31.847656 17.410156 31.75 17.503906 31.6875 C 17.5625 31.652344 17.667969 31.65625 17.71875 31.707031 Z M 16.546875 31.738281 C 16.632812 31.785156 16.671875 31.914062 16.625 32 C 16.574219 32.097656 16.445312 32.132812 16.351562 32.078125 C 16.292969 32.042969 16.25 31.949219 16.261719 31.882812 C 16.273438 31.824219 16.328125 31.75 16.371094 31.734375 C 16.417969 31.710938 16.503906 31.71875 16.546875 31.738281 Z M 15.410156 31.804688 C 15.570312 31.902344 15.496094 32.15625 15.308594 32.15625 C 15.195312 32.15625 15.121094 32.082031 15.121094 31.960938 C 15.121094 31.890625 15.125 31.878906 15.175781 31.832031 C 15.222656 31.78125 15.234375 31.773438 15.296875 31.773438 C 15.339844 31.773438 15.382812 31.785156 15.410156 31.804688 Z M 14.265625 31.855469 C 14.347656 31.902344 14.382812 32.042969 14.332031 32.121094 C 14.277344 32.207031 14.15625 32.238281 14.070312 32.191406 C 13.957031 32.132812 13.941406 31.960938 14.039062 31.871094 C 14.097656 31.816406 14.191406 31.808594 14.265625 31.855469 Z M 13.128906 31.914062 C 13.191406 31.960938 13.222656 32.058594 13.203125 32.128906 C 13.1875 32.1875 13.125 32.25 13.066406 32.265625 C 12.902344 32.308594 12.761719 32.113281 12.855469 31.972656 C 12.921875 31.875 13.039062 31.851562 13.128906 31.914062 Z M 31.914062 32.03125 C 32.007812 32.085938 32.035156 32.179688 31.992188 32.277344 C 31.941406 32.390625 31.796875 32.429688 31.703125 32.355469 C 31.554688 32.238281 31.632812 32.003906 31.820312 32 C 31.847656 32 31.890625 32.015625 31.914062 32.03125 Z M 33.0625 32.058594 C 33.203125 32.144531 33.175781 32.359375 33.015625 32.414062 C 32.859375 32.464844 32.710938 32.269531 32.800781 32.125 C 32.855469 32.035156 32.976562 32.003906 33.0625 32.058594 Z M 34.195312 32.082031 C 34.300781 32.128906 34.335938 32.285156 34.261719 32.371094 C 34.191406 32.453125 34.113281 32.476562 34.023438 32.429688 C 33.886719 32.367188 33.886719 32.148438 34.019531 32.082031 C 34.082031 32.050781 34.136719 32.050781 34.195312 32.082031 Z M 35.332031 32.105469 C 35.414062 32.148438 35.441406 32.195312 35.441406 32.285156 C 35.441406 32.355469 35.433594 32.375 35.398438 32.414062 C 35.285156 32.53125 35.117188 32.488281 35.070312 32.324219 C 35.054688 32.277344 35.054688 32.265625 35.085938 32.207031 C 35.136719 32.101562 35.242188 32.058594 35.332031 32.105469 Z M 36.507812 32.148438 C 36.566406 32.191406 36.597656 32.253906 36.59375 32.332031 C 36.585938 32.390625 36.578125 32.410156 36.535156 32.449219 C 36.476562 32.503906 36.433594 32.519531 36.363281 32.503906 C 36.265625 32.484375 36.191406 32.378906 36.210938 32.28125 C 36.242188 32.140625 36.394531 32.074219 36.507812 32.148438 Z M 37.660156 32.179688 C 37.703125 32.214844 37.742188 32.292969 37.742188 32.347656 C 37.742188 32.441406 37.644531 32.539062 37.546875 32.539062 C 37.441406 32.539062 37.34375 32.429688 37.355469 32.324219 C 37.375 32.175781 37.542969 32.097656 37.660156 32.179688 Z M 18.132812 32.214844 C 18.289062 32.257812 18.320312 32.484375 18.183594 32.566406 C 18.09375 32.625 17.960938 32.589844 17.914062 32.5 C 17.878906 32.429688 17.886719 32.335938 17.929688 32.285156 C 17.964844 32.242188 18.03125 32.203125 18.066406 32.199219 C 18.074219 32.199219 18.101562 32.207031 18.132812 32.214844 Z M 17.019531 32.277344 C 17.113281 32.324219 17.152344 32.453125 17.101562 32.550781 C 17.058594 32.640625 16.945312 32.675781 16.851562 32.632812 C 16.703125 32.5625 16.710938 32.347656 16.863281 32.277344 C 16.917969 32.25 16.960938 32.253906 17.019531 32.277344 Z M 15.902344 32.351562 C 15.992188 32.417969 16.007812 32.539062 15.941406 32.632812 C 15.800781 32.820312 15.503906 32.617188 15.625 32.414062 C 15.683594 32.316406 15.8125 32.285156 15.902344 32.351562 Z M 14.738281 32.398438 C 14.792969 32.433594 14.839844 32.503906 14.839844 32.558594 C 14.839844 32.769531 14.558594 32.835938 14.46875 32.644531 C 14.390625 32.476562 14.582031 32.300781 14.738281 32.398438 Z M 13.601562 32.453125 C 13.734375 32.535156 13.71875 32.730469 13.574219 32.796875 C 13.355469 32.894531 13.199219 32.578125 13.402344 32.453125 C 13.460938 32.417969 13.542969 32.417969 13.601562 32.453125 Z M 12.449219 32.503906 C 12.503906 32.535156 12.542969 32.605469 12.542969 32.675781 C 12.542969 32.789062 12.460938 32.867188 12.339844 32.867188 C 12.1875 32.867188 12.101562 32.660156 12.210938 32.542969 C 12.226562 32.523438 12.253906 32.503906 12.269531 32.496094 C 12.316406 32.476562 12.402344 32.480469 12.449219 32.503906 Z M 32.597656 32.617188 C 32.71875 32.695312 32.714844 32.867188 32.59375 32.949219 C 32.464844 33.035156 32.285156 32.914062 32.304688 32.761719 C 32.320312 32.617188 32.480469 32.539062 32.597656 32.617188 Z M 33.75 32.652344 C 33.867188 32.734375 33.859375 32.902344 33.734375 32.980469 C 33.570312 33.082031 33.371094 32.871094 33.476562 32.707031 C 33.542969 32.613281 33.660156 32.585938 33.75 32.652344 Z M 34.871094 32.667969 C 34.917969 32.6875 34.9375 32.707031 34.960938 32.757812 C 35.035156 32.929688 34.867188 33.09375 34.703125 33.015625 C 34.550781 32.9375 34.566406 32.703125 34.726562 32.652344 C 34.789062 32.632812 34.804688 32.636719 34.871094 32.667969 Z M 36.035156 32.707031 C 36.128906 32.773438 36.152344 32.894531 36.09375 32.980469 C 35.984375 33.132812 35.742188 33.0625 35.742188 32.875 C 35.742188 32.714844 35.910156 32.617188 36.035156 32.707031 Z M 37.214844 32.761719 C 37.296875 32.847656 37.277344 33.003906 37.179688 33.0625 C 37.046875 33.144531 36.890625 33.050781 36.890625 32.890625 C 36.890625 32.722656 37.097656 32.644531 37.214844 32.761719 Z M 38.328125 32.765625 C 38.449219 32.839844 38.441406 33.035156 38.320312 33.097656 C 38.296875 33.109375 38.25 33.121094 38.214844 33.121094 C 38.164062 33.121094 38.140625 33.113281 38.101562 33.078125 C 38.011719 32.996094 38.011719 32.867188 38.097656 32.785156 C 38.140625 32.746094 38.160156 32.738281 38.214844 32.738281 C 38.257812 32.738281 38.300781 32.746094 38.328125 32.765625 Z M 17.523438 32.839844 C 17.683594 32.949219 17.605469 33.195312 17.414062 33.195312 C 17.21875 33.191406 17.152344 32.9375 17.316406 32.832031 C 17.371094 32.800781 17.46875 32.804688 17.523438 32.839844 Z M 16.375 32.894531 C 16.496094 32.96875 16.492188 33.160156 16.363281 33.226562 C 16.296875 33.261719 16.195312 33.25 16.140625 33.199219 C 16.050781 33.113281 16.054688 32.992188 16.148438 32.910156 C 16.191406 32.875 16.210938 32.867188 16.265625 32.867188 C 16.304688 32.867188 16.347656 32.875 16.375 32.894531 Z M 15.175781 32.921875 C 15.335938 32.964844 15.367188 33.191406 15.226562 33.277344 C 15.097656 33.359375 14.9375 33.261719 14.9375 33.101562 C 14.9375 33.003906 15.011719 32.929688 15.121094 32.910156 C 15.125 32.90625 15.148438 32.914062 15.175781 32.921875 Z M 14.054688 32.988281 C 14.15625 33.027344 14.199219 33.15625 14.148438 33.257812 C 14.105469 33.347656 13.988281 33.382812 13.898438 33.339844 C 13.75 33.269531 13.757812 33.054688 13.910156 32.984375 C 13.964844 32.960938 13.988281 32.960938 14.054688 32.988281 Z M 12.949219 33.058594 C 13.039062 33.125 13.054688 33.25 12.988281 33.339844 C 12.84375 33.53125 12.542969 33.320312 12.675781 33.117188 C 12.738281 33.023438 12.863281 32.996094 12.949219 33.058594 Z M 11.785156 33.105469 C 11.921875 33.191406 11.914062 33.375 11.773438 33.449219 C 11.679688 33.5 11.542969 33.441406 11.507812 33.339844 C 11.453125 33.167969 11.636719 33.015625 11.785156 33.105469 Z M 33.292969 33.214844 C 33.429688 33.335938 33.351562 33.558594 33.171875 33.558594 C 32.996094 33.558594 32.914062 33.351562 33.039062 33.226562 C 33.105469 33.160156 33.230469 33.15625 33.292969 33.214844 Z M 34.425781 33.234375 C 34.503906 33.277344 34.535156 33.414062 34.480469 33.5 C 34.445312 33.554688 34.386719 33.585938 34.308594 33.585938 C 34.1875 33.585938 34.097656 33.460938 34.128906 33.347656 C 34.167969 33.21875 34.300781 33.167969 34.425781 33.234375 Z M 35.570312 33.261719 C 35.617188 33.289062 35.65625 33.367188 35.65625 33.425781 C 35.65625 33.484375 35.617188 33.558594 35.570312 33.589844 C 35.511719 33.625 35.414062 33.625 35.355469 33.585938 C 35.308594 33.554688 35.265625 33.484375 35.265625 33.429688 C 35.265625 33.378906 35.316406 33.285156 35.359375 33.257812 C 35.410156 33.226562 35.515625 33.226562 35.570312 33.261719 Z M 36.726562 33.304688 C 36.917969 33.472656 36.703125 33.75 36.492188 33.609375 C 36.453125 33.585938 36.414062 33.503906 36.414062 33.453125 C 36.414062 33.292969 36.613281 33.199219 36.726562 33.304688 Z M 37.84375 33.3125 C 37.9375 33.363281 37.972656 33.460938 37.925781 33.566406 C 37.863281 33.714844 37.65625 33.71875 37.582031 33.574219 C 37.5 33.410156 37.679688 33.226562 37.84375 33.3125 Z M 39 33.347656 C 39.132812 33.429688 39.117188 33.636719 38.972656 33.695312 C 38.84375 33.746094 38.710938 33.652344 38.710938 33.507812 C 38.710938 33.363281 38.875 33.269531 39 33.347656 Z M 16.84375 33.429688 C 16.976562 33.503906 16.976562 33.703125 16.84375 33.773438 C 16.773438 33.808594 16.726562 33.808594 16.660156 33.769531 C 16.59375 33.730469 16.5625 33.675781 16.5625 33.601562 C 16.5625 33.449219 16.710938 33.359375 16.84375 33.429688 Z M 15.695312 33.480469 C 15.789062 33.53125 15.824219 33.632812 15.78125 33.734375 C 15.757812 33.789062 15.738281 33.808594 15.6875 33.828125 C 15.582031 33.875 15.484375 33.839844 15.433594 33.742188 C 15.351562 33.582031 15.53125 33.394531 15.695312 33.480469 Z M 14.574219 33.554688 C 14.65625 33.625 14.679688 33.710938 14.632812 33.800781 C 14.546875 33.960938 14.304688 33.925781 14.273438 33.742188 C 14.257812 33.6875 14.273438 33.640625 14.316406 33.585938 C 14.363281 33.535156 14.394531 33.519531 14.472656 33.519531 C 14.515625 33.515625 14.539062 33.527344 14.574219 33.554688 Z M 13.421875 33.601562 C 13.542969 33.675781 13.535156 33.871094 13.414062 33.933594 C 13.390625 33.945312 13.34375 33.957031 13.308594 33.957031 C 13.257812 33.957031 13.234375 33.949219 13.195312 33.914062 C 13.097656 33.828125 13.097656 33.703125 13.195312 33.617188 C 13.234375 33.582031 13.257812 33.574219 13.3125 33.574219 C 13.351562 33.574219 13.394531 33.585938 13.421875 33.601562 Z M 12.273438 33.652344 C 12.394531 33.726562 12.386719 33.925781 12.265625 33.992188 C 12.078125 34.089844 11.886719 33.847656 12.03125 33.691406 C 12.097656 33.617188 12.195312 33.601562 12.273438 33.652344 Z M 11.109375 33.699219 C 11.179688 33.734375 11.214844 33.792969 11.214844 33.875 C 11.214844 34.066406 10.964844 34.144531 10.863281 33.976562 C 10.800781 33.875 10.84375 33.742188 10.953125 33.691406 C 11.011719 33.667969 11.042969 33.667969 11.109375 33.699219 Z M 33.945312 33.785156 C 34.007812 33.824219 34.039062 33.875 34.039062 33.949219 C 34.039062 34.0625 33.957031 34.144531 33.84375 34.144531 C 33.65625 34.144531 33.585938 33.882812 33.746094 33.785156 C 33.800781 33.75 33.886719 33.75 33.945312 33.785156 Z M 35.085938 33.808594 C 35.144531 33.839844 35.183594 33.90625 35.183594 33.988281 C 35.183594 34.039062 35.171875 34.0625 35.140625 34.101562 C 35.054688 34.203125 34.933594 34.203125 34.847656 34.105469 C 34.773438 34.019531 34.792969 33.875 34.890625 33.8125 C 34.945312 33.78125 35.027344 33.777344 35.085938 33.808594 Z M 36.226562 33.835938 C 36.320312 33.882812 36.359375 34.019531 36.304688 34.113281 C 36.28125 34.15625 36.1875 34.210938 36.136719 34.210938 C 36.085938 34.210938 36.003906 34.160156 35.972656 34.113281 C 35.878906 33.945312 36.054688 33.753906 36.226562 33.835938 Z M 37.363281 33.863281 C 37.507812 33.9375 37.515625 34.121094 37.378906 34.210938 C 37.28125 34.273438 37.152344 34.21875 37.105469 34.105469 C 37.082031 34.039062 37.089844 33.988281 37.136719 33.917969 C 37.179688 33.851562 37.289062 33.824219 37.363281 33.863281 Z M 38.535156 33.90625 C 38.660156 33.988281 38.648438 34.171875 38.515625 34.242188 C 38.382812 34.3125 38.222656 34.195312 38.238281 34.050781 C 38.257812 33.90625 38.417969 33.828125 38.535156 33.90625 Z M 39.683594 33.933594 C 39.800781 34.011719 39.796875 34.183594 39.675781 34.261719 C 39.550781 34.347656 39.371094 34.242188 39.386719 34.085938 C 39.402344 33.9375 39.5625 33.855469 39.683594 33.933594 Z M 16.199219 34.042969 C 16.347656 34.148438 16.273438 34.394531 16.09375 34.394531 C 15.945312 34.394531 15.855469 34.257812 15.917969 34.121094 C 15.964844 34.003906 16.101562 33.96875 16.199219 34.042969 Z M 15.011719 34.074219 C 15.085938 34.105469 15.121094 34.160156 15.132812 34.238281 C 15.136719 34.292969 15.132812 34.316406 15.105469 34.355469 C 15.03125 34.480469 14.839844 34.476562 14.777344 34.351562 C 14.722656 34.25 14.761719 34.128906 14.859375 34.082031 C 14.929688 34.050781 14.953125 34.050781 15.011719 34.074219 Z M 13.886719 34.136719 C 14.011719 34.203125 14.023438 34.394531 13.910156 34.472656 C 13.777344 34.558594 13.609375 34.46875 13.609375 34.308594 C 13.609375 34.160156 13.757812 34.066406 13.886719 34.136719 Z M 12.753906 34.199219 C 12.863281 34.273438 12.878906 34.410156 12.789062 34.5 C 12.699219 34.589844 12.5625 34.574219 12.492188 34.464844 C 12.429688 34.371094 12.472656 34.226562 12.578125 34.183594 C 12.632812 34.160156 12.707031 34.167969 12.753906 34.199219 Z M 11.640625 34.285156 C 11.667969 34.3125 11.691406 34.355469 11.699219 34.375 C 11.722656 34.46875 11.65625 34.578125 11.558594 34.605469 C 11.417969 34.644531 11.285156 34.511719 11.320312 34.371094 C 11.324219 34.347656 11.351562 34.308594 11.382812 34.277344 C 11.4375 34.222656 11.441406 34.222656 11.519531 34.226562 C 11.585938 34.234375 11.601562 34.242188 11.640625 34.285156 Z M 10.46875 34.308594 C 10.550781 34.359375 10.582031 34.488281 10.527344 34.574219 C 10.496094 34.632812 10.433594 34.664062 10.359375 34.664062 C 10.28125 34.664062 10.226562 34.628906 10.191406 34.554688 C 10.148438 34.472656 10.164062 34.40625 10.234375 34.335938 C 10.28125 34.289062 10.292969 34.28125 10.355469 34.28125 C 10.398438 34.28125 10.441406 34.292969 10.46875 34.308594 Z M 34.632812 34.375 C 34.789062 34.488281 34.703125 34.734375 34.515625 34.734375 C 34.417969 34.734375 34.320312 34.621094 34.332031 34.515625 C 34.351562 34.371094 34.519531 34.292969 34.632812 34.375 Z M 35.75 34.390625 C 35.890625 34.457031 35.902344 34.640625 35.769531 34.730469 C 35.605469 34.84375 35.398438 34.632812 35.507812 34.464844 C 35.542969 34.410156 35.617188 34.367188 35.667969 34.367188 C 35.6875 34.367188 35.722656 34.375 35.75 34.390625 Z M 36.902344 34.421875 C 36.949219 34.445312 36.96875 34.464844 36.988281 34.515625 C 37.085938 34.734375 36.789062 34.902344 36.65625 34.703125 C 36.59375 34.605469 36.628906 34.472656 36.734375 34.421875 C 36.796875 34.386719 36.828125 34.390625 36.902344 34.421875 Z M 38.027344 34.441406 C 38.105469 34.472656 38.148438 34.542969 38.148438 34.617188 C 38.148438 34.777344 37.992188 34.875 37.859375 34.792969 C 37.726562 34.710938 37.753906 34.484375 37.90625 34.4375 C 37.964844 34.421875 37.976562 34.421875 38.027344 34.441406 Z M 39.164062 34.464844 C 39.175781 34.464844 39.210938 34.488281 39.238281 34.511719 C 39.328125 34.597656 39.316406 34.753906 39.210938 34.820312 C 39.027344 34.933594 38.820312 34.695312 38.964844 34.527344 C 39.003906 34.484375 39.070312 34.453125 39.117188 34.460938 C 39.128906 34.460938 39.148438 34.464844 39.164062 34.464844 Z M 40.359375 34.523438 C 40.441406 34.566406 40.46875 34.703125 40.417969 34.785156 C 40.378906 34.851562 40.316406 34.878906 40.234375 34.875 C 40.070312 34.855469 40.003906 34.660156 40.121094 34.542969 C 40.1875 34.484375 40.273438 34.472656 40.359375 34.523438 Z M 15.527344 34.640625 C 15.589844 34.683594 15.628906 34.761719 15.617188 34.828125 C 15.597656 34.933594 15.476562 35.015625 15.386719 34.988281 C 15.253906 34.953125 15.199219 34.839844 15.25 34.714844 C 15.292969 34.613281 15.433594 34.574219 15.527344 34.640625 Z M 14.386719 34.691406 C 14.503906 34.765625 14.5 34.949219 14.375 35.023438 C 14.324219 35.054688 14.226562 35.050781 14.171875 35.019531 C 14.125 34.988281 14.085938 34.914062 14.085938 34.855469 C 14.085938 34.796875 14.125 34.71875 14.171875 34.691406 C 14.199219 34.675781 14.242188 34.664062 14.28125 34.664062 C 14.316406 34.664062 14.359375 34.675781 14.386719 34.691406 Z M 13.234375 34.746094 C 13.316406 34.785156 13.351562 34.902344 13.304688 34.996094 C 13.230469 35.152344 12.996094 35.128906 12.945312 34.957031 C 12.933594 34.914062 12.9375 34.894531 12.957031 34.84375 C 12.984375 34.769531 13 34.753906 13.070312 34.726562 C 13.128906 34.707031 13.167969 34.710938 13.234375 34.746094 Z M 12.058594 34.78125 C 12.132812 34.816406 12.171875 34.867188 12.175781 34.949219 C 12.183594 35.039062 12.152344 35.101562 12.078125 35.136719 C 11.941406 35.203125 11.800781 35.113281 11.800781 34.960938 C 11.796875 34.886719 11.839844 34.820312 11.90625 34.789062 C 11.972656 34.757812 12 34.757812 12.058594 34.78125 Z M 10.933594 34.847656 C 11.070312 34.917969 11.070312 35.117188 10.933594 35.1875 C 10.867188 35.222656 10.820312 35.222656 10.753906 35.1875 C 10.617188 35.117188 10.617188 34.917969 10.753906 34.84375 C 10.816406 34.8125 10.875 34.8125 10.933594 34.847656 Z M 9.785156 34.898438 C 9.886719 34.949219 9.921875 35.09375 9.859375 35.183594 C 9.742188 35.347656 9.488281 35.25 9.511719 35.050781 C 9.523438 34.917969 9.671875 34.835938 9.785156 34.898438 Z M 35.292969 34.953125 C 35.382812 34.992188 35.417969 35.132812 35.363281 35.226562 C 35.25 35.410156 34.957031 35.285156 35.015625 35.074219 C 35.046875 34.949219 35.171875 34.894531 35.292969 34.953125 Z M 36.445312 34.984375 C 36.53125 35.027344 36.5625 35.140625 36.515625 35.238281 C 36.484375 35.304688 36.421875 35.34375 36.339844 35.34375 C 36.21875 35.34375 36.125 35.21875 36.160156 35.101562 C 36.199219 34.972656 36.324219 34.921875 36.445312 34.984375 Z M 37.597656 35.015625 C 37.644531 35.046875 37.6875 35.121094 37.6875 35.179688 C 37.6875 35.285156 37.597656 35.371094 37.492188 35.371094 C 37.347656 35.371094 37.257812 35.226562 37.320312 35.09375 C 37.351562 35.027344 37.414062 34.988281 37.492188 34.988281 C 37.527344 34.988281 37.574219 35 37.597656 35.015625 Z M 38.738281 35.042969 C 38.78125 35.066406 38.835938 35.164062 38.835938 35.210938 C 38.835938 35.265625 38.78125 35.355469 38.738281 35.378906 C 38.566406 35.46875 38.378906 35.289062 38.46875 35.121094 C 38.519531 35.023438 38.648438 34.988281 38.738281 35.042969 Z M 39.921875 35.105469 C 39.984375 35.171875 39.992188 35.242188 39.957031 35.320312 C 39.921875 35.390625 39.859375 35.433594 39.789062 35.433594 C 39.636719 35.433594 39.542969 35.265625 39.621094 35.136719 C 39.664062 35.066406 39.710938 35.042969 39.800781 35.050781 C 39.867188 35.054688 39.882812 35.0625 39.921875 35.105469 Z M 41.019531 35.09375 C 41.136719 35.15625 41.152344 35.339844 41.046875 35.425781 C 41.007812 35.457031 40.933594 35.472656 40.878906 35.457031 C 40.722656 35.414062 40.691406 35.1875 40.828125 35.101562 C 40.882812 35.070312 40.964844 35.066406 41.019531 35.09375 Z M 14.855469 35.230469 C 14.992188 35.3125 14.984375 35.503906 14.835938 35.578125 C 14.785156 35.605469 14.730469 35.605469 14.671875 35.570312 C 14.539062 35.5 14.539062 35.300781 14.671875 35.230469 C 14.734375 35.195312 14.789062 35.195312 14.855469 35.230469 Z M 13.707031 35.285156 C 13.796875 35.332031 13.835938 35.460938 13.78125 35.554688 C 13.769531 35.578125 13.726562 35.613281 13.695312 35.628906 C 13.613281 35.667969 13.550781 35.65625 13.480469 35.585938 C 13.433594 35.539062 13.425781 35.523438 13.425781 35.464844 C 13.425781 35.382812 13.453125 35.328125 13.511719 35.289062 C 13.570312 35.253906 13.640625 35.25 13.707031 35.285156 Z M 12.558594 35.335938 C 12.703125 35.410156 12.699219 35.609375 12.550781 35.683594 C 12.34375 35.785156 12.167969 35.480469 12.359375 35.351562 C 12.417969 35.308594 12.496094 35.304688 12.558594 35.335938 Z M 11.4375 35.410156 C 11.488281 35.449219 11.523438 35.511719 11.523438 35.558594 C 11.523438 35.609375 11.46875 35.703125 11.425781 35.730469 C 11.371094 35.761719 11.273438 35.761719 11.21875 35.726562 C 11.171875 35.699219 11.128906 35.621094 11.128906 35.558594 C 11.128906 35.410156 11.324219 35.3125 11.4375 35.410156 Z M 10.277344 35.449219 C 10.402344 35.515625 10.402344 35.707031 10.28125 35.785156 C 10.242188 35.808594 10.21875 35.8125 10.160156 35.804688 C 10.101562 35.800781 10.082031 35.792969 10.042969 35.75 C 9.980469 35.683594 9.972656 35.621094 10.007812 35.539062 C 10.054688 35.429688 10.167969 35.394531 10.277344 35.449219 Z M 9.140625 35.507812 C 9.257812 35.585938 9.25 35.78125 9.125 35.84375 C 8.988281 35.910156 8.84375 35.820312 8.84375 35.667969 C 8.84375 35.519531 9.015625 35.425781 9.140625 35.507812 Z M 35.976562 35.542969 C 36.101562 35.617188 36.101562 35.777344 35.976562 35.871094 C 35.933594 35.90625 35.824219 35.90625 35.777344 35.875 C 35.695312 35.820312 35.664062 35.699219 35.707031 35.609375 C 35.753906 35.519531 35.886719 35.484375 35.976562 35.542969 Z M 37.117188 35.5625 C 37.175781 35.59375 37.210938 35.664062 37.210938 35.742188 C 37.210938 35.796875 37.203125 35.820312 37.171875 35.859375 C 37.085938 35.957031 36.960938 35.957031 36.878906 35.859375 C 36.800781 35.773438 36.824219 35.628906 36.921875 35.570312 C 36.976562 35.535156 37.058594 35.53125 37.117188 35.5625 Z M 38.269531 35.597656 C 38.382812 35.675781 38.390625 35.835938 38.28125 35.921875 C 38.175781 36.007812 38.019531 35.945312 37.980469 35.808594 C 37.96875 35.761719 37.972656 35.742188 37.996094 35.691406 C 38.042969 35.578125 38.171875 35.535156 38.269531 35.597656 Z M 39.449219 35.660156 C 39.535156 35.746094 39.523438 35.890625 39.417969 35.960938 C 39.289062 36.042969 39.125 35.949219 39.125 35.796875 C 39.125 35.617188 39.324219 35.53125 39.449219 35.660156 Z M 40.554688 35.65625 C 40.625 35.699219 40.660156 35.761719 40.652344 35.835938 C 40.628906 36.039062 40.378906 36.085938 40.289062 35.910156 C 40.238281 35.816406 40.28125 35.703125 40.378906 35.652344 C 40.441406 35.621094 40.496094 35.621094 40.554688 35.65625 Z M 41.714844 35.6875 C 41.832031 35.765625 41.828125 35.9375 41.707031 36.019531 C 41.542969 36.128906 41.332031 35.917969 41.445312 35.753906 C 41.503906 35.660156 41.625 35.632812 41.714844 35.6875 Z M 14.167969 35.820312 C 14.308594 35.875 14.332031 36.042969 14.21875 36.152344 C 14.1875 36.179688 14.167969 36.1875 14.09375 36.1875 C 14.015625 36.1875 14.007812 36.183594 13.964844 36.132812 C 13.910156 36.074219 13.894531 36.027344 13.90625 35.960938 C 13.921875 35.894531 13.964844 35.84375 14.035156 35.816406 C 14.105469 35.792969 14.101562 35.792969 14.167969 35.820312 Z M 13.058594 35.890625 C 13.105469 35.921875 13.144531 35.996094 13.144531 36.046875 C 13.144531 36.175781 13.019531 36.273438 12.902344 36.242188 C 12.8125 36.222656 12.742188 36.109375 12.757812 36.015625 C 12.769531 35.960938 12.847656 35.871094 12.898438 35.863281 C 12.945312 35.851562 13.023438 35.867188 13.058594 35.890625 Z M 11.882812 35.929688 C 11.964844 35.972656 11.992188 36.019531 11.992188 36.109375 C 11.992188 36.191406 11.988281 36.199219 11.9375 36.242188 C 11.878906 36.296875 11.835938 36.3125 11.769531 36.300781 C 11.59375 36.269531 11.5625 36.011719 11.722656 35.933594 C 11.777344 35.90625 11.835938 35.902344 11.882812 35.929688 Z M 10.746094 35.992188 C 10.816406 36.023438 10.851562 36.085938 10.851562 36.171875 C 10.851562 36.230469 10.84375 36.246094 10.796875 36.292969 C 10.726562 36.363281 10.664062 36.378906 10.582031 36.335938 C 10.507812 36.300781 10.472656 36.242188 10.472656 36.160156 C 10.472656 36.015625 10.613281 35.925781 10.746094 35.992188 Z M 9.605469 36.042969 C 9.75 36.121094 9.742188 36.320312 9.597656 36.390625 C 9.378906 36.496094 9.214844 36.183594 9.417969 36.050781 C 9.464844 36.015625 9.546875 36.015625 9.605469 36.042969 Z M 8.496094 36.132812 C 8.566406 36.203125 8.582031 36.269531 8.546875 36.351562 C 8.480469 36.496094 8.265625 36.5 8.199219 36.359375 C 8.136719 36.222656 8.226562 36.078125 8.378906 36.078125 C 8.4375 36.078125 8.453125 36.085938 8.496094 36.132812 Z M 36.636719 36.121094 C 36.808594 36.207031 36.765625 36.460938 36.574219 36.484375 C 36.421875 36.503906 36.304688 36.328125 36.386719 36.195312 C 36.445312 36.101562 36.542969 36.070312 36.636719 36.121094 Z M 37.777344 36.140625 C 37.847656 36.171875 37.890625 36.242188 37.890625 36.320312 C 37.890625 36.472656 37.730469 36.566406 37.605469 36.492188 C 37.472656 36.40625 37.476562 36.21875 37.617188 36.148438 C 37.675781 36.117188 37.714844 36.117188 37.777344 36.140625 Z M 38.929688 36.179688 C 38.976562 36.199219 38.996094 36.21875 39.019531 36.269531 C 39.09375 36.4375 38.925781 36.605469 38.761719 36.527344 C 38.613281 36.453125 38.621094 36.238281 38.773438 36.171875 C 38.832031 36.144531 38.859375 36.144531 38.929688 36.179688 Z M 40.058594 36.199219 C 40.132812 36.230469 40.179688 36.296875 40.179688 36.375 C 40.179688 36.527344 40.050781 36.613281 39.90625 36.554688 C 39.800781 36.511719 39.765625 36.351562 39.839844 36.261719 C 39.878906 36.21875 39.945312 36.179688 39.988281 36.179688 C 40.003906 36.179688 40.03125 36.1875 40.058594 36.199219 Z M 41.1875 36.222656 C 41.347656 36.265625 41.378906 36.492188 41.238281 36.574219 C 41.152344 36.628906 41.019531 36.597656 40.972656 36.507812 C 40.90625 36.375 40.980469 36.234375 41.132812 36.207031 C 41.136719 36.207031 41.160156 36.214844 41.1875 36.222656 Z M 42.394531 36.28125 C 42.507812 36.363281 42.496094 36.546875 42.375 36.613281 C 42.308594 36.644531 42.207031 36.632812 42.152344 36.582031 C 41.980469 36.414062 42.199219 36.144531 42.394531 36.28125 Z M 13.527344 36.425781 C 13.585938 36.460938 13.621094 36.527344 13.621094 36.605469 C 13.621094 36.660156 13.613281 36.683594 13.578125 36.722656 C 13.496094 36.816406 13.371094 36.816406 13.289062 36.722656 C 13.210938 36.636719 13.234375 36.492188 13.332031 36.433594 C 13.386719 36.398438 13.46875 36.398438 13.527344 36.425781 Z M 12.410156 36.507812 C 12.503906 36.589844 12.503906 36.71875 12.410156 36.800781 C 12.289062 36.90625 12.097656 36.816406 12.097656 36.65625 C 12.097656 36.542969 12.175781 36.460938 12.292969 36.460938 C 12.347656 36.460938 12.371094 36.46875 12.410156 36.507812 Z M 11.246094 36.546875 C 11.296875 36.574219 11.339844 36.652344 11.339844 36.707031 C 11.339844 36.851562 11.164062 36.949219 11.042969 36.875 C 10.960938 36.824219 10.929688 36.722656 10.964844 36.628906 C 10.988281 36.574219 11.015625 36.550781 11.082031 36.527344 C 11.144531 36.503906 11.1875 36.511719 11.246094 36.546875 Z M 10.105469 36.597656 C 10.253906 36.695312 10.195312 36.9375 10.015625 36.953125 C 9.855469 36.96875 9.75 36.789062 9.835938 36.652344 C 9.890625 36.570312 10.019531 36.542969 10.105469 36.597656 Z M 8.921875 36.636719 C 8.949219 36.648438 8.980469 36.675781 9.003906 36.695312 C 9.03125 36.726562 9.035156 36.75 9.035156 36.820312 C 9.035156 36.898438 9.035156 36.90625 8.984375 36.949219 C 8.925781 37.007812 8.882812 37.019531 8.808594 37.007812 C 8.640625 36.976562 8.609375 36.71875 8.765625 36.640625 C 8.824219 36.613281 8.863281 36.613281 8.921875 36.636719 Z M 7.792969 36.699219 C 7.859375 36.726562 7.894531 36.792969 7.894531 36.871094 C 7.894531 36.949219 7.859375 37.011719 7.796875 37.042969 C 7.726562 37.078125 7.683594 37.078125 7.617188 37.042969 C 7.550781 37.003906 7.519531 36.949219 7.519531 36.871094 C 7.519531 36.722656 7.660156 36.632812 7.792969 36.699219 Z M 37.335938 36.710938 C 37.457031 36.789062 37.445312 36.988281 37.320312 37.046875 C 37.148438 37.128906 36.980469 36.96875 37.054688 36.792969 C 37.105469 36.6875 37.234375 36.648438 37.335938 36.710938 Z M 38.472656 36.738281 C 38.558594 36.78125 38.59375 36.898438 38.550781 36.992188 C 38.476562 37.148438 38.242188 37.128906 38.1875 36.953125 C 38.175781 36.910156 38.179688 36.890625 38.199219 36.839844 C 38.226562 36.765625 38.242188 36.75 38.3125 36.722656 C 38.371094 36.703125 38.414062 36.707031 38.472656 36.738281 Z M 39.640625 36.777344 C 39.675781 36.800781 39.71875 36.882812 39.71875 36.929688 C 39.71875 36.984375 39.671875 37.070312 39.628906 37.097656 C 39.515625 37.167969 39.359375 37.105469 39.332031 36.980469 C 39.292969 36.804688 39.488281 36.675781 39.640625 36.777344 Z M 40.796875 36.828125 C 40.867188 36.898438 40.878906 36.964844 40.839844 37.046875 C 40.824219 37.078125 40.792969 37.117188 40.769531 37.132812 C 40.714844 37.164062 40.617188 37.164062 40.5625 37.128906 C 40.515625 37.097656 40.472656 37.023438 40.472656 36.964844 C 40.472656 36.90625 40.515625 36.832031 40.5625 36.800781 C 40.589844 36.785156 40.632812 36.773438 40.675781 36.773438 C 40.734375 36.773438 40.75 36.777344 40.796875 36.828125 Z M 41.898438 36.820312 C 42.023438 36.886719 42.042969 37.046875 41.9375 37.140625 C 41.816406 37.246094 41.621094 37.15625 41.621094 36.996094 C 41.621094 36.855469 41.777344 36.757812 41.898438 36.820312 Z M 12.875 37.035156 C 12.996094 37.113281 12.988281 37.289062 12.863281 37.371094 C 12.738281 37.449219 12.558594 37.332031 12.578125 37.179688 C 12.59375 37.035156 12.753906 36.957031 12.875 37.035156 Z M 11.710938 37.078125 C 11.855469 37.148438 11.847656 37.355469 11.699219 37.429688 C 11.597656 37.480469 11.472656 37.421875 11.4375 37.304688 C 11.394531 37.140625 11.558594 37.003906 11.710938 37.078125 Z M 10.570312 37.132812 C 10.632812 37.167969 10.667969 37.234375 10.667969 37.316406 C 10.667969 37.371094 10.660156 37.390625 10.625 37.429688 C 10.542969 37.527344 10.414062 37.527344 10.332031 37.433594 C 10.257812 37.34375 10.28125 37.203125 10.378906 37.140625 C 10.433594 37.109375 10.515625 37.105469 10.570312 37.132812 Z M 9.417969 37.191406 C 9.546875 37.257812 9.5625 37.414062 9.457031 37.507812 C 9.335938 37.613281 9.140625 37.527344 9.140625 37.363281 C 9.140625 37.21875 9.292969 37.125 9.417969 37.191406 Z M 8.304688 37.269531 C 8.40625 37.355469 8.410156 37.460938 8.316406 37.554688 C 8.269531 37.601562 8.253906 37.609375 8.195312 37.609375 C 8.042969 37.609375 7.957031 37.472656 8.011719 37.332031 C 8.058594 37.222656 8.214844 37.191406 8.304688 37.269531 Z M 38.035156 37.316406 C 38.085938 37.363281 38.105469 37.441406 38.09375 37.511719 C 38.066406 37.628906 37.90625 37.695312 37.804688 37.628906 C 37.6875 37.554688 37.6875 37.371094 37.804688 37.296875 C 37.871094 37.253906 37.980469 37.265625 38.035156 37.316406 Z M 39.152344 37.324219 C 39.21875 37.363281 39.246094 37.429688 39.238281 37.511719 C 39.222656 37.683594 39.023438 37.746094 38.90625 37.617188 C 38.800781 37.492188 38.890625 37.296875 39.054688 37.296875 C 39.082031 37.296875 39.128906 37.308594 39.152344 37.324219 Z M 40.296875 37.351562 C 40.414062 37.429688 40.421875 37.589844 40.3125 37.679688 C 40.253906 37.722656 40.191406 37.730469 40.121094 37.695312 C 40.011719 37.648438 39.972656 37.515625 40.035156 37.414062 C 40.085938 37.332031 40.21875 37.300781 40.296875 37.351562 Z M 41.476562 37.414062 C 41.628906 37.566406 41.460938 37.816406 41.269531 37.726562 C 41.125 37.660156 41.109375 37.476562 41.242188 37.386719 C 41.316406 37.335938 41.410156 37.347656 41.476562 37.414062 Z M 12.230469 37.652344 C 12.367188 37.773438 12.285156 37.992188 12.101562 37.992188 C 11.953125 37.992188 11.859375 37.820312 11.945312 37.691406 C 11.988281 37.632812 12.03125 37.609375 12.113281 37.609375 C 12.167969 37.609375 12.1875 37.617188 12.230469 37.652344 Z M 11.074219 37.695312 C 11.230469 37.808594 11.136719 38.0625 10.945312 38.042969 C 10.800781 38.03125 10.71875 37.867188 10.796875 37.75 C 10.859375 37.652344 10.984375 37.628906 11.074219 37.695312 Z M 9.921875 37.742188 C 10.039062 37.824219 10.035156 38 9.910156 38.078125 C 9.777344 38.15625 9.605469 38.039062 9.625 37.886719 C 9.640625 37.742188 9.800781 37.664062 9.921875 37.742188 Z M 8.765625 37.796875 C 8.910156 37.878906 8.882812 38.09375 8.726562 38.148438 C 8.628906 38.179688 8.53125 38.128906 8.492188 38.03125 C 8.421875 37.859375 8.601562 37.703125 8.765625 37.796875 Z M 38.683594 37.882812 C 38.816406 37.972656 38.800781 38.15625 38.660156 38.226562 C 38.570312 38.265625 38.46875 38.234375 38.414062 38.144531 C 38.3125 37.972656 38.523438 37.773438 38.683594 37.882812 Z M 39.808594 37.898438 C 39.902344 37.9375 39.945312 38.046875 39.90625 38.144531 C 39.84375 38.296875 39.660156 38.3125 39.566406 38.175781 C 39.539062 38.136719 39.535156 38.113281 39.539062 38.058594 C 39.546875 37.988281 39.574219 37.949219 39.640625 37.90625 C 39.691406 37.875 39.746094 37.871094 39.808594 37.898438 Z M 40.964844 37.933594 C 41.097656 38.003906 41.097656 38.203125 40.964844 38.277344 C 40.832031 38.347656 40.683594 38.257812 40.683594 38.101562 C 40.683594 38.03125 40.714844 37.976562 40.789062 37.933594 C 40.84375 37.898438 40.902344 37.898438 40.964844 37.933594 Z M 11.542969 38.230469 C 11.628906 38.285156 11.660156 38.410156 11.605469 38.496094 C 11.550781 38.585938 11.460938 38.617188 11.363281 38.574219 C 11.253906 38.527344 11.214844 38.394531 11.28125 38.292969 C 11.332031 38.207031 11.460938 38.179688 11.542969 38.230469 Z M 10.390625 38.28125 C 10.410156 38.292969 10.445312 38.324219 10.457031 38.351562 C 10.527344 38.464844 10.453125 38.632812 10.332031 38.644531 C 10.242188 38.648438 10.214844 38.640625 10.164062 38.585938 C 10.113281 38.539062 10.109375 38.523438 10.109375 38.46875 C 10.109375 38.429688 10.117188 38.382812 10.128906 38.359375 C 10.171875 38.269531 10.296875 38.234375 10.390625 38.28125 Z M 9.273438 38.359375 C 9.402344 38.476562 9.34375 38.679688 9.171875 38.695312 C 9.050781 38.707031 8.960938 38.628906 8.960938 38.511719 C 8.960938 38.394531 9.035156 38.320312 9.152344 38.316406 C 9.214844 38.316406 9.234375 38.324219 9.273438 38.359375 Z M 39.363281 38.46875 C 39.414062 38.5 39.453125 38.570312 39.453125 38.628906 C 39.453125 38.816406 39.21875 38.894531 39.101562 38.746094 C 39.058594 38.691406 39.054688 38.628906 39.085938 38.550781 C 39.132812 38.441406 39.265625 38.402344 39.363281 38.46875 Z M 40.484375 38.484375 C 40.617188 38.546875 40.636719 38.703125 40.523438 38.8125 C 40.492188 38.84375 40.472656 38.847656 40.402344 38.847656 C 40.332031 38.847656 40.316406 38.84375 40.28125 38.808594 C 40.171875 38.703125 40.195312 38.546875 40.328125 38.484375 C 40.398438 38.453125 40.410156 38.453125 40.484375 38.484375 Z M 10.890625 38.835938 C 11.007812 38.925781 10.996094 39.101562 10.863281 39.167969 C 10.769531 39.21875 10.667969 39.1875 10.613281 39.09375 C 10.507812 38.921875 10.730469 38.71875 10.890625 38.835938 Z M 9.726562 38.882812 C 9.820312 38.941406 9.851562 39.042969 9.804688 39.136719 C 9.714844 39.3125 9.464844 39.269531 9.441406 39.074219 C 9.421875 38.917969 9.597656 38.804688 9.726562 38.882812 Z M 40.042969 39.058594 C 40.101562 39.097656 40.125 39.144531 40.125 39.226562 C 40.125 39.332031 40.042969 39.40625 39.933594 39.40625 C 39.863281 39.40625 39.816406 39.382812 39.777344 39.324219 C 39.664062 39.152344 39.871094 38.941406 40.042969 39.058594 Z M 10.238281 39.445312 C 10.371094 39.566406 10.292969 39.789062 10.113281 39.789062 C 10.003906 39.789062 9.925781 39.710938 9.925781 39.59375 C 9.925781 39.53125 9.933594 39.511719 9.972656 39.46875 C 10.042969 39.390625 10.167969 39.378906 10.238281 39.445312 Z M 10.238281 39.445312 "/>
</g>
</svg>
